<svg width="51" height="50" viewBox="0 0 51 50" fill="none" xmlns="http://www.w3.org/2000/svg">
<g clip-path="url(#clip0_130_223)">
<path d="M25.6622 49.9148C23.8287 49.9148 21.9835 49.7114 20.1511 49.2995C13.6594 47.8404 8.12406 43.9402 4.56512 38.3183C-2.78168 26.7121 0.683383 11.2923 12.2896 3.9455C23.897 -3.40105 39.315 0.0651635 46.6624 11.6705C49.0276 15.4072 50.3592 19.7061 50.5126 24.1023C50.526 24.4783 50.2316 24.7936 49.8562 24.807L49.8317 24.8072C49.4665 24.8072 49.1646 24.5179 49.1518 24.1502C49.0067 19.995 47.7481 15.9316 45.5116 12.3992C38.5664 1.42772 23.9906 -1.84827 13.018 5.09609C7.70295 8.4606 4.01672 13.6934 2.63723 19.8306C1.2577 25.9678 2.35147 32.2747 5.71571 37.5896C9.07967 42.905 14.3125 46.5914 20.4497 47.971C26.5869 49.3505 32.8943 48.2564 38.2087 44.8924C43.4722 41.5608 47.1459 36.3851 48.5538 30.318C48.638 29.9515 49.0036 29.7245 49.3707 29.8087C49.737 29.8933 49.9651 30.2596 49.8801 30.6256C48.3912 37.0438 44.505 42.5192 38.9373 46.0433C34.9019 48.5976 30.3247 49.9148 25.6622 49.9148Z" fill="#A6BEC6"/>
<path d="M49.7149 28.1866C49.687 28.1866 49.6592 28.1849 49.6308 28.1812C49.2576 28.1356 48.9924 27.7955 49.0384 27.4223C49.0473 27.3487 49.0556 27.2797 49.0682 27.2139L49.0796 27.0435C49.1066 26.6689 49.4294 26.386 49.8077 26.4129C50.1825 26.4397 50.465 26.7653 50.4379 27.141L50.4254 27.3262C50.4232 27.363 50.4179 27.3997 50.4101 27.4365C50.4065 27.4568 50.4006 27.4995 50.3895 27.5888C50.3471 27.934 50.0536 28.1866 49.7149 28.1866Z" fill="#A6BEC6"/>
<path d="M24.2149 44.4209C20.9958 44.4209 17.736 43.6766 14.7279 42.1152C12.353 40.883 10.2699 39.2309 8.53668 37.2043C0.705516 28.0516 2.24798 12.5024 8.95642 6.66542C9.24078 6.41841 9.67027 6.44902 9.91703 6.73227C10.1641 7.0161 10.1337 7.44615 9.85018 7.6929C2.53624 14.0571 3.49267 29.2147 9.57138 36.3192C11.1907 38.212 13.1362 39.7554 15.3546 40.907C23.9422 45.3622 34.7112 42.7032 39.8744 34.8573C41.3116 32.6736 42.1967 30.2698 42.5053 27.7113C43.0465 23.2168 42.1343 18.8463 39.936 15.4045C37.1318 11.0148 31.8711 8.05689 26.5327 7.86974C22.9078 7.74526 19.9429 8.59668 17.4621 10.4803C8.51913 17.2662 13.0284 27.4882 13.2247 27.9199C15.168 31.7267 17.8047 34.0735 21.0481 34.8673C25.2131 35.8864 29.0235 34.0446 30.1418 33.2491C31.7826 32.081 36.9071 27.7009 33.9829 20.3759C31.1578 13.3026 25.1476 14.9174 24.8931 14.9893C22.6376 15.5433 20.6209 17.5787 19.8491 20.062C19.4608 21.3103 19.0871 23.7164 20.9439 25.8012C22.4204 27.4595 24.1266 27.7728 26.0141 26.7303C26.7951 26.2997 27.3365 25.631 27.5 24.8952C27.7652 23.6972 27.1268 22.7803 26.6115 22.5372C25.7189 22.1169 25.2668 22.6411 25.1499 22.8127C24.9402 23.1193 24.5193 23.2056 24.209 23.0009C23.8988 22.7957 23.8074 22.3843 24.008 22.071C24.3926 21.4685 25.5512 20.5318 27.1923 21.3058C28.2885 21.8222 29.2349 23.3597 28.8294 25.1898C28.5813 26.3073 27.7947 27.3035 26.672 27.9227C25.2541 28.7051 22.4922 29.5877 19.9271 26.7072C18.2456 24.8188 17.7432 22.2495 18.5487 19.6579C19.4572 16.7353 21.8661 14.3306 24.5433 13.6736C24.5895 13.6599 31.9564 11.6295 35.2471 19.8706C38.625 28.3304 32.2449 33.4232 30.932 34.3582C29.1118 35.6539 24.8931 37.2122 20.7245 36.19C17.0792 35.2979 14.1433 32.7143 11.9987 28.5118C11.9329 28.37 6.81739 16.8484 16.6386 9.39523C19.3798 7.3152 22.6279 6.37324 26.5806 6.50889C32.353 6.71138 38.0454 9.9155 41.0832 14.6712C43.4512 18.3786 44.4363 23.0675 43.8573 27.8742C43.5236 30.6438 42.566 33.2449 41.0119 35.6059C37.2825 41.2722 30.8353 44.4205 24.2149 44.4209Z" fill="#A6BEC6"/>
</g>
<defs>
<clipPath id="clip0_130_223">
<rect width="50" height="49.9332" fill="white" transform="translate(0.666016)"/>
</clipPath>
</defs>
</svg>
