<svg width="50" height="50" viewBox="0 0 50 50" fill="none" xmlns="http://www.w3.org/2000/svg">
<g clip-path="url(#clip0_579_2184)">
<mask id="mask0_579_2184" style="mask-type:luminance" maskUnits="userSpaceOnUse" x="0" y="0" width="50" height="50">
<path d="M49.25 49.25V0.750004H0.75V49.25H49.25Z" fill="white" stroke="white" stroke-width="1.5"/>
</mask>
<g mask="url(#mask0_579_2184)">
<path d="M19.9012 33.6049L19.904 31.0767C19.9051 30.0856 19.1025 29.2813 18.1115 29.2803C17.1204 29.2791 16.3161 30.0816 16.315 31.0727L16.3086 36.8687C16.3068 38.4182 16.7746 39.9317 17.6502 41.2101L19.1234 43.361L19.1193 47.042" stroke="#A6BEC6" stroke-width="1.5" stroke-miterlimit="10" stroke-linecap="round" stroke-linejoin="round"/>
<path d="M23.209 31.0801L23.2172 23.6577C23.2183 22.7446 22.4788 22.0035 21.5657 22.0025C20.6526 22.0016 19.9116 22.7409 19.9106 23.654L19.9023 31.0764" stroke="#A6BEC6" stroke-width="1.5" stroke-miterlimit="10" stroke-linecap="round" stroke-linejoin="round"/>
<path d="M26.5156 31.084L26.5255 22.1911C26.5266 21.2779 25.7871 20.5369 24.874 20.5359C23.9609 20.5349 23.2198 21.2743 23.2188 22.1874L23.209 31.0803" stroke="#A6BEC6" stroke-width="1.5" stroke-miterlimit="10" stroke-linecap="round" stroke-linejoin="round"/>
<path d="M29.8223 31.0879L29.8299 24.2239C29.8309 23.3108 29.0915 22.5697 28.1784 22.5688C27.2652 22.5677 26.5242 23.3071 26.5232 24.2202L26.5156 31.0842" stroke="#A6BEC6" stroke-width="1.5" stroke-miterlimit="10" stroke-linecap="round" stroke-linejoin="round"/>
<path d="M33.1264 33.3584L33.1289 31.0913L33.1349 25.6594C33.1359 24.7463 32.3965 24.0052 31.4834 24.0042C30.5703 24.0032 29.8293 24.7426 29.8282 25.6557L29.8223 31.0876" stroke="#A6BEC6" stroke-width="1.5" stroke-miterlimit="10" stroke-linecap="round" stroke-linejoin="round"/>
<path d="M31.459 47.0557L31.4633 43.213C32.5478 41.378 33.121 39.2861 33.1233 37.1547L33.1241 36.4871" stroke="#A6BEC6" stroke-width="1.5" stroke-miterlimit="10" stroke-linecap="round" stroke-linejoin="round"/>
<path d="M18.459 49.2583L18.4623 47.9961C18.4629 47.4688 18.8907 47.0419 19.4181 47.0425L31.1602 47.0555C31.6873 47.0562 32.1144 47.4841 32.1138 48.0113L32.1105 49.2734" stroke="#A6BEC6" stroke-width="1.5" stroke-miterlimit="10" stroke-linecap="round" stroke-linejoin="round"/>
<path d="M21.6473 13.7473L23.4655 15.5039C24.1782 16.1925 25.3143 16.1729 26.0029 15.4602C26.6915 14.7474 26.6719 13.6114 25.9592 12.9228L21.7907 8.89564C20.6764 7.81908 19.262 7.10541 17.734 6.84857L15.1629 6.41654L12.5156 3.85892" stroke="#A6BEC6" stroke-width="1.5" stroke-miterlimit="10" stroke-linecap="round" stroke-linejoin="round"/>
<path d="M21.168 17.8819L24.1094 20.7236" stroke="#A6BEC6" stroke-width="1.5" stroke-miterlimit="10" stroke-linecap="round" stroke-linejoin="round"/>
<path d="M29.009 22.7949C29.4662 22.1405 29.3954 21.2337 28.803 20.6613L23.4648 15.5041" stroke="#A6BEC6" stroke-width="1.5" stroke-miterlimit="10" stroke-linecap="round" stroke-linejoin="round"/>
<path d="M20.8468 22.1689L18.8711 20.2603" stroke="#A6BEC6" stroke-width="1.5" stroke-miterlimit="10" stroke-linecap="round" stroke-linejoin="round"/>
<path d="M13.6875 24.45L14.2742 25.0169L18.1809 28.791C18.6532 29.2474 19.3269 29.3643 19.9043 29.1506" stroke="#A6BEC6" stroke-width="1.5" stroke-miterlimit="10" stroke-linecap="round" stroke-linejoin="round"/>
<path d="M3.94141 12.7339L6.70498 15.4038C7.27344 17.458 8.38174 19.3226 9.91475 20.8035L11.4433 22.2803" stroke="#A6BEC6" stroke-width="1.5" stroke-miterlimit="10" stroke-linecap="round" stroke-linejoin="round"/>
<path d="M19.9084 25.8613L16.5723 22.6383" stroke="#A6BEC6" stroke-width="1.5" stroke-miterlimit="10" stroke-linecap="round" stroke-linejoin="round"/>
<path d="M10.1825 0.693887L12.2842 2.72436C12.6635 3.09076 12.6738 3.69516 12.3075 4.07436L4.14902 12.5192C3.78262 12.8984 3.17822 12.9088 2.79902 12.5424L0.697266 10.512" stroke="#A6BEC6" stroke-width="1.5" stroke-miterlimit="10" stroke-linecap="round" stroke-linejoin="round"/>
<path d="M35.5208 21.384L33.6478 23.0822C32.9135 23.7479 32.858 24.8826 33.5237 25.6169C34.1894 26.3511 35.3243 26.4067 36.0585 25.7409L40.3523 21.8479C41.5002 20.8071 42.3058 19.443 42.663 17.9353L43.2641 15.3985L45.9911 12.9259" stroke="#A6BEC6" stroke-width="1.5" stroke-miterlimit="10" stroke-linecap="round" stroke-linejoin="round"/>
<path d="M31.4258 20.6323L29.3906 22.4775" stroke="#A6BEC6" stroke-width="1.5" stroke-miterlimit="10" stroke-linecap="round" stroke-linejoin="round"/>
<path d="M27.7773 19.4775L29.2053 18.1829" stroke="#A6BEC6" stroke-width="1.5" stroke-miterlimit="10" stroke-linecap="round" stroke-linejoin="round"/>
<path d="M37.7018 3.78408L34.8551 6.36514C32.7677 6.79658 30.834 7.7792 29.2549 9.21084L25.5723 12.5498" stroke="#A6BEC6" stroke-width="1.5" stroke-miterlimit="10" stroke-linecap="round" stroke-linejoin="round"/>
<path d="M44.207 10.9583L45.7898 12.7041C46.144 13.0947 46.7479 13.1243 47.1385 12.7701L49.3034 10.8072" stroke="#A6BEC6" stroke-width="1.5" stroke-miterlimit="10" stroke-linecap="round" stroke-linejoin="round"/>
<path d="M40.1327 0.694238L37.9678 2.65713C37.5771 3.01133 37.5475 3.61504 37.9017 4.00566L42.1068 8.64355" stroke="#A6BEC6" stroke-width="1.5" stroke-miterlimit="10" stroke-linecap="round" stroke-linejoin="round"/>
</g>
</g>
<defs>
<clipPath id="clip0_579_2184">
<rect width="50" height="50" fill="white"/>
</clipPath>
</defs>
</svg>
