<svg width="50" height="50" viewBox="0 0 50 50" fill="none" xmlns="http://www.w3.org/2000/svg">
<g clip-path="url(#clip0_130_233)">
<path d="M25.6097 49.9071C22.2199 49.9071 12.8967 48.2188 12.1505 47.0286C11.9998 46.7885 11.9879 46.5 12.1174 46.2571C12.3391 45.8424 12.8098 45.7482 13.5473 45.7266C13.9183 45.709 14.2375 46.0107 14.2481 46.3867C14.2508 46.4668 14.2394 46.5446 14.2157 46.6167C16.696 47.4038 22.9031 48.6552 25.8824 48.5404C32.3369 48.2834 38.256 45.482 42.5491 40.6519C46.8394 35.8252 48.925 29.6113 48.4222 23.1561C47.4739 10.9822 37.1756 1.4593 24.9697 1.4593H24.9265C18.4512 1.47131 12.4226 4.0451 7.95181 8.70557C3.47934 13.3689 1.15733 19.4919 1.41439 25.9463C1.66229 32.1698 4.30237 37.9422 8.84923 42.1994C9.12356 42.4567 9.13776 42.8873 8.88069 43.1616C8.62333 43.4365 8.1922 43.4504 7.91813 43.1934C3.10862 38.69 0.315629 32.584 0.0535366 26.0006C-0.218021 19.1727 2.23798 12.696 6.96921 7.76335C11.6985 2.83268 18.0749 0.110451 24.924 0.0976562H24.9697C37.883 0.0976562 48.7765 10.1712 49.7798 23.0505C50.3117 29.8782 48.1056 36.4507 43.5668 41.5568C39.0258 46.666 32.7647 49.6292 25.9365 49.9013C25.8348 49.9055 25.7259 49.9071 25.6097 49.9071Z" fill="#A6BEC6"/>
<path d="M25.0427 20.724C22.5917 23.8459 21.0643 26.1089 21.2016 28.3067C21.4035 31.5319 23.449 32.6259 25.1588 32.5619C27.0684 32.5026 29.0982 31.0643 29.0982 28.5158C29.0982 26.0894 26.7152 22.7613 25.0427 20.724ZM13.5671 47.0876C13.2006 47.0876 12.8978 46.7959 12.8872 46.4272C12.8758 46.0512 13.1713 45.7376 13.5473 45.7264C27.7037 45.3048 38.1073 34.2913 38.2106 34.1801C38.3067 34.0829 46.2476 25.9236 43.3175 16.203C42.482 13.4306 39.6831 11.9982 37.3427 11.5818C31.9302 10.6214 27.5435 17.5558 27.4998 17.626L27.455 17.6903C27.0901 18.1498 26.7369 18.5927 26.3955 19.0205C26.2306 19.2269 26.0685 19.4299 25.9092 19.63C27.7 21.779 30.4599 25.5694 30.4599 28.5158C30.4599 31.9216 27.7507 33.8434 25.2015 33.9233C22.7173 34.016 20.0886 32.321 19.8427 28.3916C19.6726 25.6646 21.398 23.1468 24.142 19.6667C23.7247 19.1943 23.454 18.9119 23.442 18.8994L23.3955 18.8459C23.3415 18.7768 17.946 11.94 14.0801 11.4843C10.3003 11.0398 8.21394 13.5395 8.19305 13.5646L8.12871 13.6328C7.54131 14.1798 5.64233 16.2473 5.87825 19.8867C6.15343 24.1403 9.42717 31.3153 23.4599 41.3381C23.7657 41.5565 23.8364 41.9815 23.6181 42.2878C23.3992 42.5934 22.9744 42.6647 22.668 42.4461C11.0534 34.1503 4.94715 26.5899 4.51909 19.9748C4.24864 15.7975 6.43837 13.3568 7.1703 12.6652C7.49255 12.2898 9.94606 9.62045 14.2397 10.1324C18.5732 10.6426 23.9974 17.4104 24.4455 17.9783C24.5205 18.0568 24.7199 18.2668 25.0031 18.5821C25.1115 18.4465 25.2209 18.3094 25.3312 18.1707C25.6646 17.7535 26.0091 17.3218 26.364 16.874C26.7656 16.2372 31.4027 9.14085 37.5811 10.2416C40.3201 10.7282 43.6078 12.4471 44.6216 15.8103C47.7889 26.3186 39.545 34.7692 39.1921 35.1237C38.771 35.578 28.3259 46.6489 13.588 47.0873L13.5671 47.0876Z" fill="#A6BEC6"/>
<path d="M11.0375 45.5388C10.9058 45.5388 10.7735 45.5012 10.6562 45.4218L10.5033 45.319C10.4718 45.2981 10.4417 45.2741 10.4133 45.248L10.4131 45.2485C10.3969 45.2352 10.3632 45.209 10.2919 45.1549C9.99195 44.9286 9.93235 44.5016 10.1594 44.2013C10.3858 43.9008 10.8133 43.8415 11.113 44.069C11.174 44.115 11.2308 44.1579 11.2818 44.2013L11.4196 44.294C11.7313 44.5052 11.8124 44.9286 11.6018 45.2396C11.4701 45.4343 11.2556 45.5388 11.0375 45.5388Z" fill="#A6BEC6"/>
</g>
<defs>
<clipPath id="clip0_130_233">
<rect width="50" height="49.9332" fill="white"/>
</clipPath>
</defs>
</svg>
