<svg width="184" height="219" viewBox="0 0 184 219" fill="none" xmlns="http://www.w3.org/2000/svg">
<g clip-path="url(#clip0_541_2024)">
<path d="M93.5755 95.3015C85.3923 101.533 47.7641 131.77 47.5602 160.964C47.4705 173.826 52.9089 183.933 63.7285 191.002C80.8553 202.194 107.028 201.897 123.306 190.319C133.221 183.273 137.445 173.5 135.865 161.274C131.642 128.6 100.782 101.279 93.5755 95.3015ZM93.126 204.273C81.6332 204.273 70.0915 201.29 60.9208 195.3C48.5466 187.213 42.3233 175.649 42.4271 160.926C42.5306 146.032 50.9782 129.53 67.5331 111.879C79.6989 98.9081 91.6436 90.3231 92.1466 89.9645L93.6919 88.8594L95.2001 90.0158C95.6157 90.3338 105.492 97.9555 116.118 110.445C125.991 122.047 138.312 140.168 140.956 160.616C142.772 174.67 137.697 186.388 126.28 194.504C117.136 201.005 105.158 204.273 93.126 204.273Z" fill="#F0EFEF"/>
<path d="M86.0842 193.18C94.2755 208.617 117.685 216.857 139.367 211.955C152.933 208.887 163.022 201.405 169.356 189.718C185.5 159.919 175.817 126.316 172.888 117.742C161.49 120.643 108.978 135.205 90.4756 161.416C82.4275 172.816 80.9509 183.504 86.0842 193.18ZM126.763 218.482C107.392 218.482 89.0141 209.65 81.5484 195.586C75.4323 184.06 77.0253 171.568 86.2809 158.455C108.117 127.522 171.265 112.808 173.941 112.197L176.065 111.712L176.89 113.728C177.583 115.424 193.636 155.678 173.87 192.164C166.799 205.211 155.573 213.554 140.5 216.961C135.954 217.99 131.331 218.482 126.763 218.482Z" fill="#F0EFEF"/>
<path d="M10.852 117.742C7.92439 126.316 -1.75981 159.919 14.3864 189.717C20.7179 201.405 30.8063 208.886 44.373 211.955C66.0531 216.862 89.4648 208.616 97.6572 193.18C102.793 183.504 101.314 172.816 93.2658 161.417C74.7626 135.205 22.2504 120.643 10.852 117.742ZM56.9756 218.481C52.4071 218.481 47.7863 217.991 43.2399 216.961C28.1687 213.552 16.9414 205.21 9.87261 192.164C-9.89401 155.678 6.15781 115.425 6.85188 113.728L7.6752 111.711L9.79933 112.198C12.4766 112.808 75.6232 127.522 97.4592 158.455C106.716 171.568 108.308 184.06 102.192 195.586C94.7296 209.649 76.3476 218.481 56.9756 218.481Z" fill="#F0EFEF"/>
<path d="M91.284 5.84601H91.2572C79.8041 5.8542 74.3879 12.4186 71.8609 17.9235C66.6868 29.1949 69.0951 45.5496 77.3435 55.1569C77.8501 55.7416 83.4352 62.086 92.1563 67.8597C102.076 61.5164 113.934 51.1824 115.475 37.4212C116.59 27.4353 114.408 18.8108 109.33 13.1372C105.06 8.36849 98.8209 5.84601 91.284 5.84601ZM120.749 82.6026C109.868 82.6026 100.017 78.6175 92.1517 73.8861C82.5931 79.5062 73.2141 82.4326 64.2425 82.5852C49.7791 82.7901 35.6136 75.542 27.4154 63.5637C14.7733 45.0954 21.0466 21.2784 25.9132 8.72713C26.4255 7.40311 27.9126 6.74506 29.2332 7.26228C30.555 7.77349 31.2117 9.26045 30.6982 10.5823C27.0754 19.9298 19.9171 43.5208 31.6507 60.6629C38.7766 71.0773 51.569 77.6475 64.1552 77.4518C71.5429 77.3249 79.3138 75.0658 87.3118 70.7255C79.1088 64.9414 73.9652 59.0954 73.4586 58.5119C63.8419 47.3103 61.153 28.9457 67.1957 15.7806C71.6523 6.072 80.1966 0.721079 91.2538 0.712891H91.284C100.323 0.712891 107.884 3.82437 113.155 9.71352C119.221 16.4911 121.856 26.5341 120.574 37.993C118.924 52.7545 107.4 63.7569 97.0147 70.8058C107.776 76.7369 121.937 80.6277 136.893 73.9781C172.501 58.1532 153.732 11.1003 153.539 10.6265C153.002 9.31531 153.631 7.81634 154.942 7.27838C156.264 6.74861 157.753 7.37391 158.291 8.68182C158.503 9.20231 179.088 60.8444 138.979 78.6699C132.706 81.4555 126.579 82.6002 120.749 82.6026Z" fill="#F0EFEF"/>
</g>
<defs>
<clipPath id="clip0_541_2024">
<rect width="183.903" height="218" fill="white" transform="translate(0 0.5)"/>
</clipPath>
</defs>
</svg>
