<svg width="43" height="51" viewBox="0 0 43 51" fill="none" xmlns="http://www.w3.org/2000/svg">
<g clip-path="url(#clip0_130_121)">
<path d="M21.4621 22.6768C19.5852 24.106 10.9548 31.0411 10.9081 37.7369C10.8875 40.687 12.1349 43.005 14.6164 44.6263C18.5446 47.1934 24.5475 47.1253 28.281 44.4698C30.555 42.8536 31.5238 40.6122 31.1616 37.8082C30.1928 30.3141 23.1148 24.0478 21.4621 22.6768ZM21.359 47.6701C18.723 47.6701 16.0758 46.9861 13.9725 45.6122C11.1343 43.7574 9.70697 41.1052 9.73076 37.7284C9.75452 34.3122 11.692 30.5275 15.489 26.4789C18.2793 23.504 21.0189 21.5349 21.1343 21.4527L21.4888 21.1992L21.8347 21.4645C21.93 21.5374 24.1952 23.2855 26.6325 26.1501C28.8969 28.8111 31.7227 32.9674 32.329 37.6571C32.7457 40.8806 31.5817 43.5681 28.9631 45.4297C26.8659 46.9206 24.1186 47.6701 21.359 47.6701Z" fill="#A6BEC6"/>
<path d="M19.7429 45.1258C21.6216 48.6664 26.9907 50.5563 31.9638 49.4319C35.0751 48.7283 37.3892 47.0123 38.8419 44.3317C42.5447 37.4971 40.3238 29.79 39.6521 27.8235C37.0377 28.4888 24.9937 31.8288 20.7501 37.8405C18.9042 40.4551 18.5655 42.9065 19.7429 45.1258ZM29.073 50.9289C24.6299 50.9289 20.4149 48.9033 18.7025 45.6776C17.2998 43.0339 17.6651 40.1688 19.788 37.1613C24.7963 30.0665 39.2797 26.6918 39.8935 26.5518L40.3807 26.4404L40.5698 26.9028C40.7287 27.2919 44.4106 36.5243 39.8772 44.8926C38.2554 47.8852 35.6806 49.7986 32.2236 50.5801C31.1809 50.8162 30.1205 50.9289 29.073 50.9289Z" fill="#A6BEC6"/>
<path d="M2.48802 27.8237C1.81654 29.7903 -0.404612 37.4973 3.29866 44.3317C4.75082 47.0125 7.06468 48.7283 10.1763 49.4322C15.1488 50.5576 20.5185 48.6664 22.3975 45.126C23.5754 42.9068 23.2362 40.4554 21.3903 37.8408C17.1464 31.8291 5.10232 28.489 2.48802 27.8237ZM13.0668 50.9289C12.019 50.9289 10.9592 50.8165 9.91643 50.5804C6.45971 49.7986 3.88466 47.8851 2.26338 44.8929C-2.27025 36.5246 1.41136 27.2922 1.57055 26.903L1.75938 26.4404L2.24657 26.552C2.86061 26.692 17.3438 30.0667 22.352 37.1616C24.4752 40.169 24.8403 43.0342 23.4375 45.6778C21.726 48.9033 17.5099 50.9289 13.0668 50.9289Z" fill="#A6BEC6"/>
<path d="M20.9356 2.15974H20.9295C18.3026 2.16162 17.0603 3.66722 16.4808 4.9298C15.294 7.515 15.8464 11.2661 17.7382 13.4696C17.8544 13.6037 19.1354 15.0588 21.1357 16.3831C23.4108 14.9282 26.1306 12.558 26.4839 9.40177C26.7398 7.11142 26.2393 5.13331 25.0745 3.83204C24.0953 2.73829 22.6642 2.15974 20.9356 2.15974ZM27.6936 19.7645C25.1979 19.7645 22.9386 18.8504 21.1346 17.7653C18.9423 19.0543 16.7911 19.7255 14.7334 19.7605C11.4161 19.8075 8.16717 18.1451 6.28685 15.3977C3.38728 11.1619 4.82611 5.69928 5.9423 2.82055C6.0598 2.51688 6.40088 2.36595 6.70377 2.48458C7.00694 2.60183 7.15756 2.94287 7.03978 3.24604C6.20885 5.38997 4.56704 10.8008 7.25825 14.7324C8.89262 17.1211 11.8267 18.628 14.7134 18.5831C16.4078 18.554 18.1901 18.0358 20.0246 17.0404C18.1431 15.7137 16.9634 14.3729 16.8472 14.2391C14.6415 11.6699 14.0248 7.45784 15.4108 4.43833C16.4329 2.21158 18.3926 0.9843 20.9287 0.982422H20.9356C23.0088 0.982422 24.743 1.69606 25.9519 3.04679C27.3432 4.60127 27.9476 6.90471 27.6536 9.53292C27.2751 12.9186 24.6319 15.4421 22.25 17.0588C24.7182 18.4191 27.9661 19.3115 31.3963 17.7864C39.5633 14.1568 35.2585 3.36486 35.2142 3.25618C35.0911 2.95545 35.2353 2.61165 35.5361 2.48827C35.8392 2.36676 36.1808 2.51018 36.3042 2.81016C36.3528 2.92954 41.0742 14.774 31.8747 18.8625C30.4361 19.5014 29.0307 19.7639 27.6936 19.7645Z" fill="#A6BEC6"/>
</g>
<defs>
<clipPath id="clip0_130_121">
<rect width="42.1795" height="50" fill="white" transform="translate(0 0.933594)"/>
</clipPath>
</defs>
</svg>
