<svg width="267" height="219" viewBox="0 0 267 219" fill="none" xmlns="http://www.w3.org/2000/svg">
<g clip-path="url(#clip0_541_2014)">
<path d="M130.71 115.924C120.836 124.786 113.079 135.1 109.002 143.849C100.338 162.445 99.9904 182.977 108.096 197.433C112.686 205.617 121.912 213.56 134.077 211.318C141.855 209.877 148.234 205.776 153.038 199.127C162.286 186.334 159.076 157.816 150.147 141.818C144.586 131.864 141.174 127.309 130.931 116.163L130.71 115.924ZM129.829 218.484C116.91 218.484 107.239 209.741 102.192 200.743C93.0399 184.42 93.2993 161.523 102.868 140.991C107.131 131.844 115.161 120.822 125.744 111.224C118.299 104.969 108.477 99.7812 96.4425 95.7567C66.5349 85.7593 34.6983 94.5306 11.266 119.223C8.17373 122.484 6.4425 124.695 6.42454 124.715C5.27485 126.187 3.14941 126.456 1.67749 125.305C0.204072 124.157 -0.0612066 122.033 1.08695 120.558C1.1634 120.457 3.016 118.091 6.35858 114.568C31.642 87.9131 66.1212 78.4866 98.5889 89.3387C111.889 93.7887 122.747 99.6404 130.964 106.78C137.581 101.502 144.998 96.8872 152.976 93.5835C155.95 92.1056 195.593 73.2075 234.119 94.7839C245.98 101.426 256.182 109.995 264.439 120.255C265.61 121.712 265.38 123.842 263.925 125.014C262.464 126.181 260.338 125.952 259.166 124.498C251.454 114.916 241.915 106.904 230.814 100.687C194.812 80.5312 156.294 99.4907 155.907 99.6825L155.67 99.7904C148.661 102.682 141.973 106.798 135.898 111.567L135.913 111.585C146.479 123.077 150.242 128.112 156.054 138.519C164.806 154.196 170.722 186.212 158.524 203.093C152.666 211.199 144.855 216.204 135.307 217.971C133.422 218.319 131.596 218.484 129.829 218.484Z" fill="#F0EFEF"/>
<path d="M132.782 7.72163C119.227 7.72163 108.2 18.7463 108.2 32.3007C108.2 45.8551 119.227 56.8825 132.782 56.8825C146.336 56.8825 157.361 45.8551 157.361 32.3007C157.361 18.7463 146.336 7.72163 132.782 7.72163ZM132.782 63.65C115.496 63.65 101.434 49.5859 101.434 32.3007C101.434 15.0168 115.496 0.954102 132.782 0.954102C150.065 0.954102 164.128 15.0168 164.128 32.3007C164.128 49.5859 150.065 63.65 132.782 63.65Z" fill="#F0EFEF"/>
</g>
<defs>
<clipPath id="clip0_541_2014">
<rect width="266.205" height="218" fill="white" transform="translate(0 0.5)"/>
</clipPath>
</defs>
</svg>
