<svg width="62" height="51" viewBox="0 0 62 51" fill="none" xmlns="http://www.w3.org/2000/svg">
<g clip-path="url(#clip0_130_117)">
<path d="M29.9798 27.4077C27.715 29.4402 25.9359 31.8058 25.0008 33.8124C23.0137 38.0775 22.9339 42.7866 24.7931 46.1024C25.8458 47.9795 27.9618 49.8012 30.7519 49.2869C32.5358 48.9565 33.999 48.0159 35.1008 46.4909C37.222 43.5567 36.4856 37.0158 34.4377 33.3466C33.1622 31.0635 32.3798 30.0188 30.0303 27.4624L29.9798 27.4077ZM29.7777 50.9306C26.8146 50.9306 24.5965 48.9252 23.439 46.8615C21.3398 43.1176 21.3993 37.866 23.594 33.1569C24.5717 31.0591 26.4134 28.5309 28.8408 26.3296C27.1333 24.895 24.8805 23.7052 22.1202 22.7821C15.2607 20.4891 7.9587 22.5009 2.58431 28.1644C1.87508 28.9121 1.47801 29.4193 1.47389 29.424C1.2102 29.7616 0.722718 29.8232 0.385121 29.5591C0.0471819 29.2958 -0.0136619 28.8087 0.249676 28.4704C0.267211 28.4474 0.69212 27.9045 1.45877 27.0966C7.25772 20.9831 15.1658 18.8211 22.6125 21.3101C25.6629 22.3307 28.1533 23.6729 30.0379 25.3104C31.5557 24.0999 33.2568 23.0414 35.0867 22.2837C35.7688 21.9447 44.8612 17.6103 53.6975 22.559C56.4179 24.0823 58.7577 26.0478 60.6516 28.401C60.9201 28.7351 60.8675 29.2236 60.5336 29.4925C60.1984 29.7603 59.711 29.7076 59.4421 29.3742C57.6734 27.1764 55.4855 25.3389 52.9395 23.9129C44.6821 19.29 35.8475 23.6385 35.7588 23.6825L35.7045 23.7073C34.097 24.3704 32.563 25.3145 31.1696 26.4084L31.1731 26.4125C33.5964 29.0483 34.4597 30.2031 35.7925 32.59C37.7999 36.1856 39.1568 43.5288 36.3591 47.4005C35.0156 49.2598 33.2241 50.4076 31.0342 50.8129C30.6017 50.8927 30.183 50.9306 29.7777 50.9306Z" fill="#A6BEC6"/>
<path d="M30.4555 2.59027C27.3467 2.59027 24.8175 5.11886 24.8175 8.22766C24.8175 11.3365 27.3467 13.8657 30.4555 13.8657C33.5644 13.8657 36.0929 11.3365 36.0929 8.22766C36.0929 5.11886 33.5644 2.59027 30.4555 2.59027ZM30.4555 15.4179C26.491 15.4179 23.2656 12.1922 23.2656 8.22766C23.2656 4.26348 26.491 1.03809 30.4555 1.03809C34.4197 1.03809 37.6451 4.26348 37.6451 8.22766C37.6451 12.1922 34.4197 15.4179 30.4555 15.4179Z" fill="#A6BEC6"/>
</g>
<defs>
<clipPath id="clip0_130_117">
<rect width="61.0561" height="50" fill="white" transform="translate(0 0.933594)"/>
</clipPath>
</defs>
</svg>
