<svg width="19" height="19" viewBox="0 0 19 19" fill="none" xmlns="http://www.w3.org/2000/svg">
<path d="M10 4.46401C12.5312 4.46401 14.6205 6.55329 14.6205 9.08454C14.6205 11.656 12.5312 13.7051 10 13.7051C7.42857 13.7051 5.37946 11.656 5.37946 9.08454C5.37946 6.55329 7.42857 4.46401 10 4.46401ZM10 12.0979C11.6473 12.0979 12.9732 10.772 12.9732 9.08454C12.9732 7.43722 11.6473 6.11133 10 6.11133C8.3125 6.11133 6.98661 7.43722 6.98661 9.08454C6.98661 10.772 8.35268 12.0979 10 12.0979ZM15.8661 4.30329C15.8661 4.90597 15.3839 5.38811 14.7812 5.38811C14.1786 5.38811 13.6964 4.90597 13.6964 4.30329C13.6964 3.70061 14.1786 3.21847 14.7812 3.21847C15.3839 3.21847 15.8661 3.70061 15.8661 4.30329ZM18.9196 5.38811C19 6.87472 19 11.3345 18.9196 12.8211C18.8393 14.2676 18.5179 15.5131 17.4732 16.5979C16.4286 17.6426 15.1429 17.964 13.6964 18.0444C12.2098 18.1247 7.75 18.1247 6.26339 18.0444C4.81696 17.964 3.57143 17.6426 2.48661 16.5979C1.44196 15.5131 1.12054 14.2676 1.04018 12.8211C0.959821 11.3345 0.959821 6.87472 1.04018 5.38811C1.12054 3.94169 1.44196 2.65597 2.48661 1.61133C3.57143 0.566685 4.81696 0.245257 6.26339 0.1649C7.75 0.0845426 12.2098 0.0845426 13.6964 0.1649C15.1429 0.245257 16.4286 0.566685 17.4732 1.61133C18.5179 2.65597 18.8393 3.94169 18.9196 5.38811ZM16.9911 14.3881C17.4732 13.2229 17.3527 10.4104 17.3527 9.08454C17.3527 7.79883 17.4732 4.98633 16.9911 3.78097C16.6696 3.01758 16.067 2.37472 15.3036 2.09347C14.0982 1.61133 11.2857 1.73186 10 1.73186C8.67411 1.73186 5.86161 1.61133 4.69643 2.09347C3.89286 2.4149 3.29018 3.01758 2.96875 3.78097C2.48661 4.98633 2.60714 7.79883 2.60714 9.08454C2.60714 10.4104 2.48661 13.2229 2.96875 14.3881C3.29018 15.1917 3.89286 15.7944 4.69643 16.1158C5.86161 16.5979 8.67411 16.4774 10 16.4774C11.2857 16.4774 14.0982 16.5979 15.3036 16.1158C16.067 15.7944 16.7098 15.1917 16.9911 14.3881Z" fill="#F0EFEF"/>
</svg>
