<svg width="19" height="20" viewBox="0 0 19 20" fill="none" xmlns="http://www.w3.org/2000/svg">
<path d="M16.2011 16.3188H13.4595V12.0227C13.4595 10.9982 13.4386 9.67985 12.0308 9.67985C10.6013 9.67985 10.383 10.7946 10.383 11.9471V16.3188H7.64136V7.48436H10.275V8.68856H10.3105C10.6785 7.99428 11.5733 7.26142 12.9102 7.26142C15.6881 7.26142 16.2019 9.0897 16.2019 11.4696V16.3188H16.2011ZM4.54485 6.27553C3.66233 6.27553 2.95339 5.56119 2.95339 4.68253C2.95339 3.80465 3.66311 3.09108 4.54485 3.09108C5.42428 3.09108 6.13708 3.80465 6.13708 4.68253C6.13708 5.56119 5.42351 6.27553 4.54485 6.27553ZM5.91953 16.3188H3.17016V7.48436H5.91953V16.3188ZM17.5727 0.541504H1.79393C1.03871 0.541504 0.427734 1.13859 0.427734 1.8753V17.722C0.427734 18.4595 1.03871 19.0558 1.79393 19.0558H17.5704C18.3249 19.0558 18.942 18.4595 18.942 17.722V1.8753C18.942 1.13859 18.3249 0.541504 17.5704 0.541504L17.5727 0.541504Z" fill="#F0EFEF"/>
</svg>
