<svg width="259" height="320" viewBox="0 0 259 320" fill="none" xmlns="http://www.w3.org/2000/svg">
<g opacity="0.5">
<path d="M124.277 209.744C108.608 179.284 101.766 157.85 98.9654 147.057C97.8633 142.221 98.4038 136.019 103.213 133.04C105.346 131.72 108.564 131.09 111.198 133.277L111.324 133.378L121.162 141.016L121.403 141.193L121.555 141.296C123.317 142.5 125.652 142.429 127.339 141.12L137.178 133.483L137.303 133.381C139.938 131.194 143.154 131.824 145.287 133.144C150.097 136.122 150.637 142.325 149.535 147.159C146.738 157.94 139.909 179.337 124.277 209.744ZM247.922 185.643C245.215 185.382 242.812 187.361 242.549 190.071C239.618 220.168 226.802 250.24 207.384 272.575C197.275 284.205 185.81 293.324 173.309 299.68C159.984 306.457 145.805 309.891 131.166 309.891C101.71 309.891 71.3899 293.866 47.9817 265.925C36.205 251.868 26.8993 235.729 20.3219 217.954C13.3642 199.156 9.83807 179.459 9.83807 159.406C9.83807 76.9763 59.2412 9.91539 119.967 9.91539C120.124 9.91539 120.281 9.90825 120.437 9.89286C120.785 9.85768 155.684 7.093 190.731 54.0058C201.817 71.7657 208.257 92.3173 209.358 113.449C211.271 150.203 204.47 206.796 161.982 269.686C154.326 261.014 142.631 243.319 131.738 223.692C131.104 222.549 130.48 221.415 129.868 220.293C148.218 185.769 156 161.441 159.075 149.571L159.106 149.446C161.988 136.974 156.528 128.515 150.457 124.756C144.154 120.854 136.565 121.239 131.096 125.732L124.317 130.994L117.406 125.628C111.937 121.137 104.346 120.75 98.0435 124.653C91.9727 128.411 86.5126 136.87 89.3941 149.341L89.4257 149.468C92.5038 161.349 100.297 185.713 118.689 220.294C118.059 221.449 117.417 222.618 116.763 223.796C105.866 243.428 94.1687 261.127 86.5126 269.796C48.3116 213.347 43.6283 164.584 46.5766 133.291C49.7097 100.039 66.2047 59.865 95.018 50.2419C107.043 46.2262 123.335 42.9559 142.746 53.3941C145.14 54.6802 148.121 53.7794 149.405 51.3807C150.69 48.9815 149.791 45.9937 147.398 44.7065C137.034 39.1331 126.174 36.3904 115.093 36.5778C105.405 36.7361 97.2211 39.1133 91.9072 40.887C76.4499 46.0503 62.9418 58.7234 52.8428 77.537C44.3221 93.4133 38.6174 112.885 36.7818 132.365C33.5972 166.168 38.8 219.242 81.6772 280.121C82.598 281.428 84.0966 282.207 85.6959 282.207H86.0305C87.2063 282.207 88.3447 281.785 89.2362 281.016C97.1977 274.159 110.853 254.464 124.279 230.526C137.687 254.417 151.314 274.064 159.264 280.912C160.157 281.68 161.294 282.102 162.47 282.102H162.806C164.408 282.102 165.911 281.32 166.831 280.006C213.798 212.955 221.223 152.144 219.182 112.935C217.992 90.061 210.998 67.8116 198.957 48.5924C198.887 48.4808 198.812 48.3704 198.732 48.2648C178.832 21.5612 158.63 9.88681 145.188 4.79441C131.408 -0.423318 121.583 -0.0666027 119.782 0.0548677C103.456 0.0878459 87.6369 4.38547 72.7611 12.8301C58.4643 20.9467 45.65 32.5325 34.6748 47.265C12.3137 77.2764 0 117.103 0 159.406C0 180.633 3.7333 201.485 11.0969 221.384C18.0686 240.221 27.9441 257.34 40.4484 272.266C65.7297 302.443 98.7958 319.751 131.166 319.751C147.366 319.751 163.043 315.957 177.76 308.473C191.394 301.541 203.857 291.642 214.803 279.052C235.534 255.205 249.215 223.121 252.34 191.029C252.603 188.319 250.626 185.908 247.922 185.643Z" fill="#A6BEC6"/>
<path d="M249.892 153.442C244.871 153.442 240.785 157.537 240.785 162.57C240.785 167.602 244.871 171.697 249.892 171.697C254.913 171.697 258.999 167.602 258.999 162.57C258.999 157.537 254.913 153.442 249.892 153.442Z" fill="#A6BEC6"/>
</g>
</svg>
