<svg width="182" height="60" viewBox="0 0 182 60" fill="none" xmlns="http://www.w3.org/2000/svg">
<g clip-path="url(#clip0_366_277)">
<path d="M23.5612 39.1987C20.6361 33.5124 19.3589 29.5112 18.836 27.4963C18.6303 26.5936 18.7312 25.4357 19.6291 24.8797C20.0272 24.6332 20.6278 24.5157 21.1197 24.9239L21.143 24.9428L22.9796 26.3686L23.0246 26.4016L23.053 26.4209C23.3819 26.6457 23.8178 26.6324 24.1328 26.3881L25.9695 24.9623L25.9929 24.9434C26.4847 24.5351 27.0851 24.6527 27.4833 24.8992C28.3811 25.455 28.482 26.6129 28.2763 27.5154C27.7541 29.5279 26.4793 33.5222 23.5612 39.1987ZM46.6431 34.6994C46.1377 34.6508 45.6891 35.0203 45.64 35.5261C45.0929 41.1445 42.7003 46.7584 39.0754 50.9279C37.1882 53.0988 35.0481 54.8011 32.7145 55.9878C30.2268 57.2528 27.58 57.8939 24.8471 57.8939C19.3484 57.8939 13.6883 54.9023 9.31847 49.6863C7.12003 47.0622 5.38285 44.0494 4.15499 40.7312C2.85614 37.2221 2.19788 33.545 2.19788 29.8017C2.19788 14.4138 11.4204 1.89494 22.7566 1.89494C22.7859 1.89494 22.8151 1.8936 22.8444 1.89073C22.9093 1.88416 29.4242 1.36806 35.9667 10.1257C38.0363 13.4411 39.2384 17.2776 39.4439 21.2225C39.801 28.0836 38.5314 38.6482 30.5999 50.3885C29.1707 48.7696 26.9875 45.4663 24.954 41.8024C24.8356 41.589 24.7192 41.3773 24.6049 41.1679C28.0304 34.723 29.4832 30.1815 30.0571 27.9656L30.063 27.9422C30.601 25.6141 29.5817 24.035 28.4484 23.3332C27.2719 22.6048 25.8551 22.6767 24.834 23.5153L23.5686 24.4978L22.2785 23.496C21.2575 22.6575 19.8405 22.5853 18.6639 23.314C17.5306 24.0155 16.5114 25.5946 17.0493 27.9227L17.0552 27.9463C17.6298 30.1644 19.0846 34.7126 22.5181 41.1681C22.4004 41.3837 22.2805 41.6019 22.1584 41.8219C20.1242 45.4867 17.9406 48.7908 16.5114 50.4091C9.38006 39.8712 8.5058 30.7683 9.05617 24.9265C9.64106 18.719 12.7203 11.2194 18.0991 9.42302C20.3439 8.67338 23.3854 8.06288 27.0089 10.0115C27.4557 10.2516 28.0122 10.0834 28.2521 9.63562C28.4919 9.18774 28.3241 8.62998 27.8773 8.38968C25.9427 7.34925 23.9152 6.83725 21.8467 6.87224C20.0381 6.90179 18.5104 7.34556 17.5184 7.67667C14.6329 8.64055 12.1112 11.0063 10.2259 14.5184C8.63531 17.4822 7.57037 21.1171 7.2277 24.7536C6.6332 31.064 7.60445 40.9717 15.6087 52.3364C15.7806 52.5805 16.0604 52.7258 16.3589 52.7258H16.4214C16.6409 52.7258 16.8534 52.647 17.0198 52.5035C18.506 51.2236 21.0552 47.5468 23.5616 43.0781C26.0645 47.5381 28.6085 51.2058 30.0925 52.4842C30.2592 52.6275 30.4715 52.7063 30.6909 52.7063H30.7537C31.0528 52.7063 31.3333 52.5603 31.5052 52.315C40.2727 39.798 41.6589 28.4459 41.2778 21.1265C41.0557 16.8564 39.7501 12.7029 37.5023 9.1151C37.4892 9.09427 37.4752 9.07365 37.4604 9.05395C33.7453 4.06895 29.9742 1.8896 27.4647 0.938958C24.8924 -0.0350791 23.0582 0.031512 22.7221 0.0541879C19.6743 0.0603442 16.7212 0.862619 13.9442 2.43905C11.2754 3.95423 8.88319 6.11706 6.83436 8.86731C2.66002 14.4698 0.361328 21.9045 0.361328 29.8017C0.361328 33.7643 1.05826 37.6568 2.43288 41.3715C3.73435 44.888 5.57788 48.0838 7.91218 50.8701C12.6316 56.5035 18.8044 59.7345 24.8471 59.7345C27.8714 59.7345 30.798 59.0262 33.5453 57.6293C36.0905 56.3352 38.417 54.4873 40.4603 52.137C44.3305 47.6852 46.8844 41.6958 47.4678 35.705C47.5169 35.1991 47.1479 34.7489 46.6431 34.6994Z" fill="#161512"/>
<path d="M47.0106 28.6885C46.0732 28.6885 45.3105 29.4529 45.3105 30.3923C45.3105 31.3318 46.0732 32.0962 47.0106 32.0962C47.948 32.0962 48.7106 31.3318 48.7106 30.3923C48.7106 29.4529 47.948 28.6885 47.0106 28.6885Z" fill="#161512"/>
<path d="M68.8698 22.2288C69.3868 22.4231 69.602 23.037 69.326 23.5158C69.0902 23.9251 68.8116 24.2967 68.4898 24.6325C67.9347 25.2099 67.2833 25.6486 66.5362 25.9483C65.7891 26.2477 64.9742 26.3979 64.0921 26.3979C62.7537 26.3979 61.597 26.1013 60.6224 25.5093C59.6473 24.9179 58.8931 24.0793 58.3593 22.9957C57.8255 21.9113 57.5586 20.62 57.5586 19.1223C57.5586 17.625 57.8255 16.3334 58.3593 15.2492C58.8931 14.1657 59.6473 13.3274 60.6224 12.7348C61.597 12.1437 62.7395 11.8477 64.0488 11.8477C64.96 11.8477 65.771 11.9724 66.4832 12.222C67.1941 12.4713 67.8029 12.8423 68.3082 13.3347C68.5822 13.601 68.8252 13.9006 69.0385 14.2316C69.3338 14.6909 69.169 15.3048 68.6753 15.5362L68.6236 15.5607C68.2003 15.7596 67.7078 15.5887 67.4681 15.1864C67.1979 14.7316 66.8658 14.3639 66.4722 14.0834C65.8816 13.6623 65.1164 13.4519 64.1768 13.4519C63.2235 13.4519 62.3841 13.6766 61.6577 14.1262C60.932 14.5755 60.3665 15.2213 59.9607 16.062C59.5548 16.9042 59.3519 17.9243 59.3519 19.1223C59.3519 20.3064 59.5445 21.3232 59.9284 22.1718C60.3129 23.0203 60.8609 23.6691 61.5724 24.1188C62.2839 24.5681 63.1234 24.7931 64.0921 24.7931C65.0311 24.7931 65.8492 24.5538 66.5472 24.076C67.0493 23.7314 67.452 23.2632 67.755 22.6706C67.9637 22.2625 68.4368 22.0661 68.8653 22.2273L68.8698 22.2288Z" fill="#161512"/>
<path d="M78.7366 13.4518C77.7686 13.4518 76.9284 13.6765 76.2176 14.1258C75.5054 14.5749 74.9574 15.2243 74.5736 16.0729C74.189 16.922 73.9971 17.9382 73.9971 19.1217C73.9971 20.3063 74.189 21.3225 74.5736 22.1708C74.9574 23.02 75.5054 23.6691 76.2176 24.1184C76.9284 24.568 77.7686 24.7927 78.7366 24.7927C79.7189 24.7927 80.5616 24.568 81.266 24.1184C81.9711 23.6691 82.5152 23.02 82.8997 22.1708C83.2843 21.3225 83.4762 20.3063 83.4762 19.1217C83.4762 17.9382 83.2843 16.922 82.8997 16.0729C82.5152 15.2243 81.9711 14.5749 81.266 14.1258C80.5616 13.6765 79.7189 13.4518 78.7366 13.4518ZM78.7366 11.8467C80.0744 11.8467 81.2305 12.1433 82.2057 12.7347C83.1808 13.3274 83.935 14.1653 84.4688 15.2492C85.0026 16.3334 85.2695 17.624 85.2695 19.1217C85.2695 20.6197 85.0026 21.9112 84.4688 22.9948C83.935 24.0789 83.1808 24.9178 82.2057 25.5092C81.2305 26.1013 80.0744 26.397 78.7366 26.397C77.3983 26.397 76.2422 26.1013 75.2676 25.5092C74.2918 24.9178 73.5376 24.0789 73.0038 22.9948C72.47 21.9112 72.2031 20.6197 72.2031 19.1217C72.2031 17.624 72.47 16.3334 73.0038 15.2492C73.5376 14.1653 74.2918 13.3274 75.2676 12.7347C76.2422 12.1433 77.3983 11.8467 78.7366 11.8467Z" fill="#161512"/>
<path d="M95.3256 19.0574L99.1197 24.866C99.4894 25.4319 99.0842 26.1827 98.4095 26.1827C98.1239 26.1827 97.857 26.0382 97.6999 25.7993L93.8955 19.9992L95.3256 19.0574ZM94.3433 18.715C95.354 18.715 96.105 18.5043 96.5962 18.0841C97.0873 17.663 97.3329 17.0321 97.3329 16.1902C97.3329 15.3489 97.0873 14.7174 96.5962 14.2963C96.105 13.8758 95.354 13.6648 94.3433 13.6648H90.7354V18.715H94.3433ZM94.3646 12.0605C95.8026 12.0605 96.9555 12.4316 97.8233 13.1733C98.6919 13.9147 99.1262 14.9205 99.1262 16.1902C99.1262 17.4596 98.6887 18.4472 97.813 19.1534C96.9374 19.8599 95.7812 20.213 94.3433 20.213L94.1941 20.3198H90.7354V25.3323C90.7354 25.8017 90.3554 26.1827 89.8868 26.1827H89.8765C89.4073 26.1827 89.0273 25.8017 89.0273 25.3323V12.0605H94.3646Z" fill="#161512"/>
<path d="M107.943 19.0574C109.053 19.0574 109.865 18.8255 110.377 18.3619C110.889 17.8989 111.145 17.2316 111.145 16.3611C111.145 15.477 110.889 14.8067 110.377 14.35C109.865 13.8934 109.053 13.6648 107.943 13.6648H104.933V19.0574H107.943ZM108.199 12.0605C109.153 12.0605 109.982 12.2354 110.686 12.5846C111.391 12.9343 111.942 13.4304 112.341 14.0716C112.739 14.7134 112.939 15.477 112.939 16.3611C112.939 17.2458 112.739 18.0088 112.341 18.6506C111.942 19.2924 111.391 19.7888 110.686 20.1377C109.982 20.4874 109.153 20.6623 108.199 20.6623H104.933V25.3272C104.933 25.7993 104.55 26.1827 104.079 26.1827C103.607 26.1827 103.225 25.7993 103.225 25.3272V12.0605H108.199Z" fill="#161512"/>
<path d="M121.927 13.4518C120.959 13.4518 120.12 13.6765 119.408 14.1258C118.696 14.5749 118.149 15.2243 117.764 16.0729C117.38 16.922 117.188 17.9382 117.188 19.1217C117.188 20.3063 117.38 21.3225 117.764 22.1708C118.149 23.02 118.696 23.6691 119.408 24.1184C120.12 24.568 120.959 24.7927 121.927 24.7927C122.91 24.7927 123.753 24.568 124.457 24.1184C125.162 23.6691 125.706 23.02 126.091 22.1708C126.475 21.3225 126.667 20.3063 126.667 19.1217C126.667 17.9382 126.475 16.922 126.091 16.0729C125.706 15.2243 125.162 14.5749 124.457 14.1258C123.753 13.6765 122.91 13.4518 121.927 13.4518ZM121.927 11.8467C123.265 11.8467 124.422 12.1433 125.396 12.7347C126.372 13.3274 127.126 14.1653 127.66 15.2492C128.193 16.3334 128.46 17.624 128.46 19.1217C128.46 20.6197 128.193 21.9112 127.66 22.9948C127.126 24.0789 126.372 24.9178 125.396 25.5092C124.422 26.1013 123.265 26.397 121.927 26.397C120.589 26.397 119.433 26.1013 118.458 25.5092C117.483 24.9178 116.729 24.0789 116.195 22.9948C115.661 21.9112 115.395 20.6197 115.395 19.1217C115.395 17.624 115.661 16.3334 116.195 15.2492C116.729 14.1653 117.483 13.3274 118.458 12.7347C119.433 12.1433 120.589 11.8467 121.927 11.8467Z" fill="#161512"/>
<path d="M138.515 19.0574L142.309 24.866C142.679 25.4319 142.274 26.1827 141.599 26.1827C141.313 26.1827 141.046 26.0382 140.889 25.7993L137.084 19.9992L138.515 19.0574ZM137.533 18.715C138.544 18.715 139.294 18.5043 139.786 18.0841C140.276 17.663 140.522 17.0321 140.522 16.1902C140.522 15.3489 140.276 14.7174 139.786 14.2963C139.294 13.8758 138.544 13.6648 137.533 13.6648H133.925V18.715H137.533ZM137.554 12.0605C138.992 12.0605 140.144 12.4316 141.013 13.1733C141.881 13.9147 142.316 14.9205 142.316 16.1902C142.316 17.4596 141.877 18.4472 141.002 19.1534C140.127 19.8599 138.971 20.213 137.533 20.213L137.384 20.3198H133.925V25.3323C133.925 25.8017 133.545 26.1827 133.076 26.1827H133.066C132.597 26.1827 132.217 25.8017 132.217 25.3323V12.0605H137.554Z" fill="#161512"/>
<path d="M148.571 20.6626H153.717L151.133 13.7082L148.571 20.6626ZM156.411 26.1827C156.061 26.1827 155.747 25.9663 155.622 25.6393L154.336 22.2675H147.952L146.663 25.6457C146.539 25.9696 146.229 26.1827 145.883 26.1827C145.297 26.1827 144.893 25.5919 145.107 25.0442L150.151 12.0605H152.179L157.199 25.0306C157.414 25.5856 157.005 26.1827 156.411 26.1827Z" fill="#161512"/>
<path d="M168.49 12.863C168.49 13.3059 168.131 13.6654 167.689 13.6654H163.58V25.3272C163.58 25.7999 163.197 26.1827 162.725 26.1827C162.254 26.1827 161.872 25.7999 161.872 25.3272V13.6654H157.762C157.32 13.6654 156.961 13.3059 156.961 12.863C156.961 12.42 157.32 12.0605 157.762 12.0605H167.689C168.131 12.0605 168.49 12.42 168.49 12.863Z" fill="#161512"/>
<path d="M171.479 26.1827V12.0605H180.563C181.005 12.0605 181.363 12.4194 181.363 12.863C181.363 13.3059 181.005 13.6648 180.563 13.6648H173.187V18.2225H178.748C179.19 18.2225 179.549 18.582 179.549 19.0249C179.549 19.4682 179.19 19.8277 178.748 19.8277H173.187V24.5776H180.883C181.325 24.5776 181.683 24.9371 181.683 25.3803C181.683 25.8233 181.325 26.1827 180.883 26.1827H171.479Z" fill="#161512"/>
<path d="M78.3555 45.6466V31.5244H87.4397C87.8817 31.5244 88.2403 31.8833 88.2403 32.3268C88.2403 32.7698 87.8817 33.1287 87.4397 33.1287H80.0634V37.6864H85.625C86.0671 37.6864 86.4257 38.0459 86.4257 38.4888C86.4257 38.9321 86.0671 39.2915 85.625 39.2915H80.0634V44.0415H87.7596C88.2023 44.0415 88.5602 44.4009 88.5602 44.8442C88.5602 45.2871 88.2023 45.6466 87.7596 45.6466H78.3555Z" fill="#161512"/>
<path d="M93.6846 44.0424H100.954C101.396 44.0424 101.755 44.4018 101.755 44.8448C101.755 45.2878 101.396 45.6472 100.954 45.6472H91.9766V32.3268C91.9766 31.8839 92.3352 31.5244 92.7773 31.5244H92.8839C93.3259 31.5244 93.6846 31.8839 93.6846 32.3268V44.0424Z" fill="#161512"/>
<path d="M106.45 44.0424H113.72C114.162 44.0424 114.521 44.4018 114.521 44.8448C114.521 45.2878 114.162 45.6472 113.72 45.6472H104.742V32.3268C104.742 31.8839 105.101 31.5244 105.543 31.5244H105.65C106.092 31.5244 106.45 31.8839 106.45 32.3268V44.0424Z" fill="#161512"/>
<path d="M128.569 32.3372V45.6466H126.455L120.563 36.189L119.069 33.5355H119.047L119.133 35.6756V44.8333C119.133 45.2826 118.769 45.6466 118.321 45.6466H118.321C117.873 45.6466 117.51 45.2826 117.51 44.8333V31.5244H119.624L125.495 40.9392L127.01 43.6571H127.032L126.946 41.4957V32.3372C126.946 31.8884 127.309 31.5244 127.758 31.5244C128.206 31.5244 128.569 31.8884 128.569 32.3372Z" fill="#161512"/>
<path d="M133.182 45.6466V31.5244H142.266C142.708 31.5244 143.067 31.8833 143.067 32.3268C143.067 32.7698 142.708 33.1287 142.266 33.1287H134.89V37.6864H140.451C140.893 37.6864 141.252 38.0459 141.252 38.4888C141.252 38.9321 140.893 39.2915 140.451 39.2915H134.89V44.0415H142.586C143.028 44.0415 143.387 44.4009 143.387 44.8442C143.387 45.2871 143.028 45.6466 142.586 45.6466H133.182Z" fill="#161512"/>
<path d="M151.329 31.3105C152.567 31.3105 153.635 31.5638 154.532 32.0696C155.197 32.446 155.78 32.9531 156.281 33.5924C156.575 33.968 156.505 34.5148 156.128 34.8075L156.078 34.8463C155.692 35.1469 155.144 35.0601 154.85 34.6693C154.453 34.1429 154.023 33.7473 153.56 33.4822C152.898 33.1046 152.097 32.9154 151.158 32.9154C150.403 32.9154 149.781 33.0223 149.29 33.236C148.799 33.4507 148.439 33.7324 148.212 34.0812C147.984 34.431 147.87 34.8269 147.87 35.2686C147.87 35.7687 148.026 36.2071 148.34 36.5848C148.653 36.9631 149.28 37.2591 150.219 37.4728L153.271 38.1571C154.624 38.4571 155.567 38.9098 156.101 39.5161C156.634 40.1224 156.901 40.875 156.901 41.774C156.901 42.5734 156.677 43.2826 156.229 43.9029C155.78 44.5234 155.151 45.0047 154.339 45.3474C153.528 45.6893 152.574 45.8608 151.478 45.8608C150.453 45.8608 149.553 45.7218 148.777 45.4431C148.001 45.1653 147.336 44.7909 146.781 44.32C146.455 44.0434 146.163 43.7474 145.906 43.4308C145.608 43.0655 145.675 42.5239 146.04 42.2267L146.144 42.142C146.521 41.8341 147.087 41.8894 147.374 42.2819C147.548 42.5215 147.742 42.7437 147.955 42.9508C148.383 43.3646 148.898 43.6852 149.503 43.9132C150.108 44.1418 150.802 44.256 151.585 44.256C152.311 44.256 152.941 44.1673 153.474 43.9885C154.008 43.8103 154.417 43.5468 154.702 43.197C154.987 42.8472 155.129 42.4231 155.129 41.9237C155.129 41.4677 154.979 41.0569 154.681 40.6929C154.382 40.3297 153.819 40.055 152.994 39.8692L149.685 39.1205C148.816 38.921 148.116 38.6463 147.582 38.2965C147.048 37.9474 146.664 37.5335 146.429 37.0557C146.194 36.5775 146.077 36.0608 146.077 35.5042C146.077 34.7486 146.287 34.053 146.706 33.4182C147.126 32.7833 147.731 32.273 148.522 31.8883C149.311 31.503 150.247 31.3105 151.329 31.3105Z" fill="#161512"/>
<path d="M165.012 31.3105C166.251 31.3105 167.318 31.5638 168.215 32.0696C168.88 32.446 169.464 32.9531 169.965 33.5924C170.259 33.968 170.189 34.5148 169.812 34.8075L169.762 34.8463C169.376 35.1469 168.828 35.0601 168.534 34.6693C168.137 34.1429 167.707 33.7473 167.243 33.4822C166.582 33.1046 165.781 32.9154 164.842 32.9154C164.087 32.9154 163.465 33.0223 162.974 33.236C162.482 33.4507 162.123 33.7324 161.895 34.0812C161.668 34.431 161.554 34.8269 161.554 35.2686C161.554 35.7687 161.71 36.2071 162.024 36.5848C162.336 36.9631 162.963 37.2591 163.902 37.4728L166.955 38.1571C168.308 38.4571 169.25 38.9098 169.784 39.5161C170.317 40.1224 170.584 40.875 170.584 41.774C170.584 42.5734 170.361 43.2826 169.912 43.9029C169.464 44.5234 168.834 45.0047 168.023 45.3474C167.212 45.6893 166.258 45.8608 165.162 45.8608C164.137 45.8608 163.237 45.7218 162.461 45.4431C161.685 45.1653 161.02 44.7909 160.465 44.32C160.139 44.0434 159.847 43.7474 159.589 43.4308C159.292 43.0655 159.359 42.5239 159.724 42.2267L159.828 42.1414C160.204 41.8341 160.771 41.8894 161.057 42.2819C161.232 42.5215 161.426 42.7437 161.639 42.9508C162.066 43.3646 162.582 43.6852 163.187 43.9132C163.792 44.1418 164.486 44.256 165.268 44.256C165.995 44.256 166.624 44.1673 167.158 43.9885C167.692 43.8103 168.101 43.5468 168.386 43.197C168.67 42.8472 168.812 42.4231 168.812 41.9237C168.812 41.4677 168.663 41.0569 168.365 40.6929C168.065 40.3297 167.503 40.055 166.678 39.8692L163.368 39.1205C162.5 38.921 161.799 38.6463 161.266 38.2965C160.732 37.9474 160.347 37.5335 160.113 37.0557C159.878 36.5775 159.761 36.0608 159.761 35.5042C159.761 34.7486 159.971 34.053 160.39 33.4182C160.81 32.7833 161.415 32.273 162.205 31.8883C162.995 31.503 163.931 31.3105 165.012 31.3105Z" fill="#161512"/>
<path d="M58.3949 31.5244H58.4925C58.8693 31.5244 59.1995 31.777 59.299 32.141L62.3351 43.253H62.3745L65.8377 31.5244H67.7086L71.1518 43.253H71.1912L74.2848 32.1371C74.3856 31.7752 74.7145 31.5244 75.09 31.5244C75.6477 31.5244 76.049 32.0621 75.892 32.5983L72.0668 45.6466H70.2561L66.7728 33.6788H66.7334L63.2301 45.6466H61.3993L57.5929 32.5971C57.4359 32.0615 57.8372 31.5244 58.3949 31.5244Z" fill="#161512"/>
</g>
<defs>
<clipPath id="clip0_366_277">
<rect width="181.529" height="60" fill="white" transform="translate(0.236328)"/>
</clipPath>
</defs>
</svg>
