<svg width="232" height="77" viewBox="0 0 232 77" fill="none" xmlns="http://www.w3.org/2000/svg">
<path d="M29.8084 50.451C26.0701 43.2483 24.4378 38.1801 23.7695 35.628C23.5066 34.4845 23.6355 33.0178 24.783 32.3136C25.2919 32.0014 26.0595 31.8526 26.6881 32.3696L26.718 32.3935L29.0651 34.1995L29.1226 34.2414L29.1589 34.2658C29.5793 34.5505 30.1364 34.5337 30.5389 34.2242L32.8864 32.4182L32.9162 32.3943C33.5448 31.8771 34.3121 32.0261 34.821 32.3382C35.9685 33.0423 36.0975 34.509 35.8345 35.6521C35.1671 38.2013 33.5378 43.2608 29.8084 50.451ZM59.3079 44.7519C58.6621 44.6903 58.0887 45.1583 58.0259 45.7991C57.3267 52.9157 54.2689 60.0266 49.6362 65.308C47.2243 68.0578 44.4891 70.2141 41.5066 71.7172C38.3274 73.3195 34.9446 74.1316 31.4519 74.1316C24.4244 74.1316 17.1905 70.3422 11.6057 63.7354C8.79606 60.4114 6.57589 56.5952 5.00663 52.3922C3.34666 47.9473 2.50539 43.2897 2.50539 38.5481C2.50539 19.0568 14.2921 3.19957 28.7801 3.19957C28.8175 3.19957 28.8549 3.19788 28.8924 3.19424C28.9753 3.18592 37.3016 2.53219 45.6631 13.6252C48.3081 17.8247 49.8444 22.6843 50.1071 27.6811C50.5635 36.3719 48.9409 49.7537 38.8041 64.6247C36.9775 62.5741 34.1874 58.3899 31.5884 53.7491C31.4372 53.4787 31.2884 53.2106 31.1424 52.9453C35.5202 44.7818 37.377 39.0292 38.1105 36.2224L38.118 36.1928C38.8055 33.2439 37.5028 31.2437 36.0545 30.3547C34.5508 29.432 32.7401 29.5232 31.4352 30.5854L29.8179 31.8298L28.1691 30.5609C26.8642 29.4988 25.0532 29.4074 23.5496 30.3304C22.1012 31.219 20.7985 33.2192 21.486 36.1681L21.4935 36.198C22.2279 39.0075 24.0872 44.7686 28.4753 52.9456C28.3249 53.2187 28.1716 53.4951 28.0156 53.7738C25.4158 58.4158 22.6251 62.601 20.7985 64.6509C11.6845 51.3028 10.5671 39.7725 11.2705 32.3729C12.018 24.5101 15.9534 15.0106 22.8278 12.7351C25.6966 11.7856 29.5837 11.0123 34.2147 13.4805C34.7858 13.7846 35.497 13.5716 35.8035 13.0044C36.11 12.4371 35.8956 11.7306 35.3245 11.4262C32.852 10.1084 30.2609 9.45984 27.6173 9.50415C25.3058 9.54158 23.3534 10.1037 22.0856 10.5231C18.3977 11.744 15.1749 14.7407 12.7655 19.1893C10.7326 22.9434 9.37161 27.5476 8.93367 32.1538C8.17388 40.1471 9.41516 52.6968 19.6449 67.0922C19.8646 67.4014 20.2221 67.5854 20.6037 67.5854H20.6835C20.964 67.5854 21.2356 67.4856 21.4483 67.3037C23.3478 65.6825 26.6057 61.0253 29.809 55.3649C33.0078 61.0142 36.2591 65.66 38.1557 67.2793C38.3687 67.4609 38.64 67.5607 38.9205 67.5607H39.0007C39.383 67.5607 39.7414 67.3757 39.9611 67.065C51.1664 51.2101 52.938 36.8308 52.4509 27.5596C52.1671 22.1508 50.4984 16.8897 47.6257 12.3451C47.6089 12.3187 47.591 12.2926 47.5721 12.2676C42.8241 5.95332 38.0044 3.19281 34.7973 1.98866C31.5097 0.754883 29.1656 0.839232 28.736 0.867954C24.8408 0.875752 21.0668 1.89197 17.5177 3.88879C14.1067 5.80801 11.0494 8.54759 8.43096 12.0312C3.09602 19.1277 0.158203 28.545 0.158203 38.5481C0.158203 43.5674 1.0489 48.498 2.80571 53.2032C4.46904 57.6574 6.82514 61.7055 9.80845 65.2348C15.8401 72.3704 23.7291 76.4631 31.4519 76.4631C35.317 76.4631 39.0573 75.5659 42.5685 73.7964C45.8214 72.1572 48.7946 69.8165 51.4062 66.8395C56.3523 61.2006 59.6164 53.614 60.3619 46.0256C60.4247 45.3849 59.953 44.8146 59.3079 44.7519Z" fill="#A6BEC6"/>
<path d="M59.7782 37.1382C58.5802 37.1382 57.6055 38.1064 57.6055 39.2964C57.6055 40.4864 58.5802 41.4547 59.7782 41.4547C60.9762 41.4547 61.9509 40.4864 61.9509 39.2964C61.9509 38.1064 60.9762 37.1382 59.7782 37.1382Z" fill="#A6BEC6"/>
<path d="M87.7139 28.9556C88.3747 29.2018 88.6497 29.9794 88.297 30.5858C87.9956 31.1042 87.6396 31.5749 87.2283 32.0003C86.5188 32.7317 85.6863 33.2874 84.7315 33.667C83.7767 34.0462 82.7353 34.2365 81.6079 34.2365C79.8974 34.2365 78.419 33.8608 77.1735 33.1109C75.9272 32.3617 74.9634 31.2996 74.2811 29.9271C73.5989 28.5534 73.2578 26.9178 73.2578 25.0208C73.2578 23.1241 73.5989 21.4881 74.2811 20.1148C74.9634 18.7423 75.9272 17.6805 77.1735 16.9299C78.419 16.1811 79.8793 15.8062 81.5526 15.8062C82.7171 15.8062 83.7536 15.9642 84.6638 16.2803C85.5723 16.5961 86.3503 17.066 86.9962 17.6898C87.3464 18.027 87.6569 18.4066 87.9295 18.8258C88.3069 19.4076 88.0963 20.1852 87.4653 20.4783L87.3993 20.5094C86.8583 20.7613 86.2289 20.5448 85.9225 20.0352C85.5772 19.4592 85.1527 18.9934 84.6498 18.6381C83.8949 18.1047 82.917 17.8382 81.7161 17.8382C80.4978 17.8382 79.425 18.1228 78.4966 18.6923C77.5691 19.2615 76.8465 20.0795 76.3278 21.1443C75.8091 22.2111 75.5497 23.5033 75.5497 25.0208C75.5497 26.5206 75.7959 27.8085 76.2865 28.8833C76.7779 29.9582 77.4783 30.78 78.3876 31.3496C79.297 31.9187 80.3698 32.2037 81.6079 32.2037C82.808 32.2037 83.8536 31.9007 84.7455 31.2953C85.3873 30.8589 85.9019 30.2659 86.2892 29.5152C86.556 28.9983 87.1605 28.7495 87.7081 28.9537L87.7139 28.9556Z" fill="#A6BEC6"/>
<path d="M100.325 17.8384C99.0874 17.8384 98.0137 18.123 97.1052 18.6921C96.1951 19.2609 95.4947 20.0835 95.0041 21.1583C94.5127 22.234 94.2674 23.5211 94.2674 25.0202C94.2674 26.5207 94.5127 27.8079 95.0041 28.8824C95.4947 29.958 96.1951 30.7802 97.1052 31.3494C98.0137 31.9189 99.0874 32.2035 100.325 32.2035C101.58 32.2035 102.657 31.9189 103.557 31.3494C104.458 30.7802 105.154 29.958 105.645 28.8824C106.137 27.8079 106.382 26.5207 106.382 25.0202C106.382 23.5211 106.137 22.234 105.645 21.1583C105.154 20.0835 104.458 19.2609 103.557 18.6921C102.657 18.123 101.58 17.8384 100.325 17.8384ZM100.325 15.8052C102.034 15.8052 103.512 16.1809 104.758 16.93C106.005 17.6807 106.968 18.7421 107.651 20.115C108.333 21.4883 108.674 23.1231 108.674 25.0202C108.674 26.9176 108.333 28.5536 107.651 29.9261C106.968 31.2994 106.005 32.3619 104.758 33.1111C103.512 33.861 102.034 34.2355 100.325 34.2355C98.6142 34.2355 97.1366 33.861 95.8911 33.1111C94.644 32.3619 93.6802 31.2994 92.9979 29.9261C92.3157 28.5536 91.9746 26.9176 91.9746 25.0202C91.9746 23.1231 92.3157 21.4883 92.9979 20.115C93.6802 18.7421 94.644 17.6807 95.8911 16.93C97.1366 16.1809 98.6142 15.8052 100.325 15.8052Z" fill="#A6BEC6"/>
<path d="M121.526 24.9389L126.375 32.2964C126.847 33.0133 126.33 33.9643 125.467 33.9643C125.102 33.9643 124.761 33.7812 124.56 33.4786L119.698 26.1318L121.526 24.9389ZM120.271 24.5051C121.562 24.5051 122.522 24.2382 123.15 23.706C123.777 23.1726 124.091 22.3735 124.091 21.307C124.091 20.2414 123.777 19.4415 123.15 18.9081C122.522 18.3755 121.562 18.1082 120.271 18.1082H115.659V24.5051H120.271ZM120.298 16.0762C122.136 16.0762 123.609 16.5461 124.718 17.4856C125.828 18.4247 126.383 19.6988 126.383 21.307C126.383 22.9149 125.824 24.1659 124.705 25.0604C123.586 25.9553 122.108 26.4026 120.271 26.4026L120.08 26.5379H115.659V32.8871C115.659 33.4817 115.174 33.9643 114.575 33.9643H114.562C113.962 33.9643 113.477 33.4817 113.477 32.8871V16.0762H120.298Z" fill="#A6BEC6"/>
<path d="M137.651 24.9389C139.07 24.9389 140.107 24.6451 140.762 24.0579C141.417 23.4714 141.744 22.6261 141.744 21.5236C141.744 20.4037 141.417 19.5546 140.762 18.9762C140.107 18.3978 139.07 18.1082 137.651 18.1082H133.804V24.9389H137.651ZM137.978 16.0762C139.197 16.0762 140.257 16.2977 141.157 16.7399C142.057 17.183 142.763 17.8113 143.272 18.6235C143.781 19.4365 144.036 20.4037 144.036 21.5236C144.036 22.6442 143.781 23.6106 143.272 24.4236C142.763 25.2365 142.057 25.8653 141.157 26.3072C140.257 26.7502 139.197 26.9717 137.978 26.9717H133.804V32.8806C133.804 33.4786 133.315 33.9643 132.713 33.9643C132.11 33.9643 131.621 33.4786 131.621 32.8806V16.0762H137.978Z" fill="#A6BEC6"/>
<path d="M155.523 17.8384C154.286 17.8384 153.213 18.123 152.304 18.6921C151.393 19.2609 150.694 20.0835 150.203 21.1583C149.711 22.234 149.466 23.5211 149.466 25.0202C149.466 26.5207 149.711 27.8079 150.203 28.8824C150.694 29.958 151.393 30.7802 152.304 31.3494C153.213 31.9189 154.286 32.2035 155.523 32.2035C156.779 32.2035 157.856 31.9189 158.757 31.3494C159.657 30.7802 160.352 29.958 160.844 28.8824C161.335 27.8079 161.58 26.5207 161.58 25.0202C161.58 23.5211 161.335 22.234 160.844 21.1583C160.352 20.0835 159.657 19.2609 158.757 18.6921C157.856 18.123 156.779 17.8384 155.523 17.8384ZM155.523 15.8052C157.233 15.8052 158.711 16.1809 159.957 16.93C161.203 17.6807 162.167 18.7421 162.849 20.115C163.531 21.4883 163.872 23.1231 163.872 25.0202C163.872 26.9176 163.531 28.5536 162.849 29.9261C162.167 31.2994 161.203 32.3619 159.957 33.1111C158.711 33.861 157.233 34.2355 155.523 34.2355C153.813 34.2355 152.335 33.861 151.09 33.1111C149.843 32.3619 148.879 31.2994 148.197 29.9261C147.515 28.5536 147.174 26.9176 147.174 25.0202C147.174 23.1231 147.515 21.4883 148.197 20.115C148.879 18.7421 149.843 17.6807 151.09 16.93C152.335 16.1809 153.813 15.8052 155.523 15.8052Z" fill="#A6BEC6"/>
<path d="M176.723 24.9389L181.572 32.2964C182.045 33.0133 181.527 33.9643 180.665 33.9643C180.299 33.9643 179.958 33.7812 179.758 33.4786L174.895 26.1318L176.723 24.9389ZM175.468 24.5051C176.76 24.5051 177.719 24.2382 178.347 23.706C178.974 23.1726 179.288 22.3735 179.288 21.307C179.288 20.2414 178.974 19.4415 178.347 18.9081C177.719 18.3755 176.76 18.1082 175.468 18.1082H170.857V24.5051H175.468ZM175.495 16.0762C177.333 16.0762 178.805 16.5461 179.915 17.4856C181.025 18.4247 181.581 19.6988 181.581 21.307C181.581 22.9149 181.021 24.1659 179.902 25.0604C178.783 25.9553 177.306 26.4026 175.468 26.4026L175.277 26.5379H170.857V32.8871C170.857 33.4817 170.371 33.9643 169.772 33.9643H169.759C169.159 33.9643 168.674 33.4817 168.674 32.8871V16.0762H175.495Z" fill="#A6BEC6"/>
<path d="M189.576 26.9721H196.152L192.85 18.1632L189.576 26.9721ZM199.596 33.9643C199.148 33.9643 198.747 33.6901 198.587 33.2759L196.943 29.0049H188.785L187.137 33.284C186.979 33.6943 186.583 33.9643 186.141 33.9643C185.391 33.9643 184.876 33.2159 185.148 32.5222L191.595 16.0762H194.187L200.602 32.5049C200.877 33.2078 200.355 33.9643 199.596 33.9643Z" fill="#A6BEC6"/>
<path d="M215.033 17.0926C215.033 17.6537 214.575 18.109 214.01 18.109H208.758V32.8806C208.758 33.4794 208.269 33.9643 207.666 33.9643C207.064 33.9643 206.575 33.4794 206.575 32.8806V18.109H201.322C200.757 18.109 200.299 17.6537 200.299 17.0926C200.299 16.5315 200.757 16.0762 201.322 16.0762H214.01C214.575 16.0762 215.033 16.5315 215.033 17.0926Z" fill="#A6BEC6"/>
<path d="M218.852 33.9643V16.0762H230.462C231.026 16.0762 231.485 16.5307 231.485 17.0926C231.485 17.6537 231.026 18.1082 230.462 18.1082H221.034V23.8813H228.142C228.707 23.8813 229.166 24.3367 229.166 24.8977C229.166 25.4592 228.707 25.9145 228.142 25.9145H221.034V31.9311H230.87C231.436 31.9311 231.894 32.3864 231.894 32.9479C231.894 33.509 231.436 33.9643 230.87 33.9643H218.852Z" fill="#A6BEC6"/>
<path d="M99.8379 58.6186V40.7305H111.448C112.013 40.7305 112.471 41.185 112.471 41.7469C112.471 42.308 112.013 42.7625 111.448 42.7625H102.021V48.5356H109.129C109.694 48.5356 110.152 48.991 110.152 49.552C110.152 50.1135 109.694 50.5688 109.129 50.5688H102.021V56.5854H111.857C112.422 56.5854 112.88 57.0407 112.88 57.6022C112.88 58.1633 112.422 58.6186 111.857 58.6186H99.8379Z" fill="#A6BEC6"/>
<path d="M119.429 56.5865H128.72C129.285 56.5865 129.743 57.0419 129.743 57.6029C129.743 58.164 129.285 58.6194 128.72 58.6194H117.246V41.7469C117.246 41.1858 117.704 40.7305 118.269 40.7305H118.406C118.971 40.7305 119.429 41.1858 119.429 41.7469V56.5865Z" fill="#A6BEC6"/>
<path d="M135.743 56.5865H145.034C145.599 56.5865 146.058 57.0419 146.058 57.6029C146.058 58.164 145.599 58.6194 145.034 58.6194H133.561V41.7469C133.561 41.1858 134.019 40.7305 134.584 40.7305H134.72C135.285 40.7305 135.743 41.1858 135.743 41.7469V56.5865Z" fill="#A6BEC6"/>
<path d="M164.011 41.76V58.6186H161.309L153.779 46.639L151.869 43.2778H151.842L151.951 45.9886V57.5883C151.951 58.1575 151.487 58.6186 150.914 58.6186H150.914C150.341 58.6186 149.877 58.1575 149.877 57.5883V40.7305H152.579L160.082 52.6559L162.019 56.0985H162.047L161.937 53.3608V41.76C161.937 41.1916 162.401 40.7305 162.974 40.7305C163.547 40.7305 164.011 41.1916 164.011 41.76Z" fill="#A6BEC6"/>
<path d="M169.906 58.6186V40.7305H181.516C182.081 40.7305 182.539 41.185 182.539 41.7469C182.539 42.308 182.081 42.7625 181.516 42.7625H172.089V48.5356H179.197C179.762 48.5356 180.22 48.991 180.22 49.552C180.22 50.1135 179.762 50.5688 179.197 50.5688H172.089V56.5854H181.926C182.491 56.5854 182.949 57.0407 182.949 57.6022C182.949 58.1633 182.491 58.6186 181.926 58.6186H169.906Z" fill="#A6BEC6"/>
<path d="M193.098 40.4595C194.68 40.4595 196.044 40.7802 197.191 41.4209C198.041 41.8978 198.787 42.54 199.427 43.3499C199.802 43.8256 199.713 44.5182 199.232 44.8889L199.167 44.9381C198.674 45.3189 197.974 45.2089 197.598 44.7139C197.091 44.0471 196.541 43.546 195.949 43.2103C195.103 42.7319 194.08 42.4923 192.88 42.4923C191.915 42.4923 191.119 42.6277 190.492 42.8984C189.864 43.1703 189.405 43.5272 189.114 43.969C188.823 44.412 188.677 44.9135 188.677 45.4731C188.677 46.1065 188.877 46.6618 189.278 47.1402C189.677 47.6193 190.479 47.9943 191.679 48.265L195.58 49.1318C197.309 49.5118 198.514 50.0852 199.196 50.8532C199.878 51.6211 200.219 52.5745 200.219 53.7132C200.219 54.7257 199.933 55.6241 199.36 56.4098C198.787 57.1958 197.982 57.8054 196.945 58.2395C195.908 58.6726 194.689 58.8898 193.288 58.8898C191.978 58.8898 190.828 58.7137 189.837 58.3607C188.845 58.0088 187.995 57.5346 187.286 56.9382C186.868 56.5878 186.496 56.2129 186.167 55.8118C185.786 55.3491 185.872 54.6631 186.338 54.2866L186.471 54.1793C186.953 53.7893 187.676 53.8593 188.043 54.3566C188.266 54.66 188.514 54.9415 188.786 55.2038C189.332 55.7279 189.991 56.134 190.764 56.4228C191.537 56.7124 192.424 56.857 193.425 56.857C194.353 56.857 195.157 56.7447 195.84 56.5182C196.522 56.2925 197.045 55.9587 197.409 55.5156C197.772 55.0726 197.955 54.5354 197.955 53.9028C197.955 53.3252 197.763 52.8048 197.382 52.3437C196.999 51.8838 196.281 51.5358 195.226 51.3004L190.996 50.3521C189.886 50.0994 188.991 49.7514 188.309 49.3084C187.627 48.8661 187.135 48.3419 186.835 47.7366C186.536 47.1309 186.385 46.4764 186.385 45.7715C186.385 44.8143 186.654 43.9333 187.19 43.1291C187.727 42.325 188.5 41.6785 189.51 41.1913C190.519 40.7033 191.715 40.4595 193.098 40.4595Z" fill="#A6BEC6"/>
<path d="M210.588 40.4595C212.17 40.4595 213.535 40.7802 214.68 41.4209C215.531 41.8978 216.277 42.54 216.917 43.3499C217.293 43.8256 217.204 44.5182 216.722 44.8889L216.658 44.9381C216.165 45.3189 215.464 45.2089 215.088 44.7139C214.581 44.0471 214.031 43.546 213.439 43.2103C212.593 42.7319 211.57 42.4923 210.37 42.4923C209.405 42.4923 208.61 42.6277 207.982 42.8984C207.354 43.1703 206.895 43.5272 206.604 43.969C206.313 44.412 206.168 44.9135 206.168 45.4731C206.168 46.1065 206.368 46.6618 206.768 47.1402C207.168 47.6193 207.968 47.9943 209.169 48.265L213.071 49.1318C214.799 49.5118 216.004 50.0852 216.686 50.8532C217.368 51.6211 217.709 52.5745 217.709 53.7132C217.709 54.7257 217.423 55.6241 216.85 56.4098C216.277 57.1958 215.472 57.8054 214.435 58.2395C213.399 58.6726 212.18 58.8898 210.779 58.8898C209.469 58.8898 208.318 58.7137 207.327 58.3607C206.335 58.0088 205.485 57.5346 204.776 56.9382C204.359 56.5878 203.986 56.2129 203.657 55.8118C203.277 55.3491 203.362 54.6631 203.829 54.2866L203.962 54.1785C204.443 53.7893 205.167 53.8593 205.533 54.3566C205.756 54.66 206.004 54.9415 206.277 55.2038C206.823 55.7279 207.482 56.134 208.255 56.4228C209.028 56.7124 209.915 56.857 210.915 56.857C211.843 56.857 212.648 56.7447 213.33 56.5182C214.012 56.2925 214.535 55.9587 214.899 55.5156C215.263 55.0726 215.444 54.5354 215.444 53.9028C215.444 53.3252 215.254 52.8048 214.872 52.3437C214.49 51.8838 213.771 51.5358 212.716 51.3004L208.487 50.3521C207.377 50.0994 206.481 49.7514 205.799 49.3084C205.117 48.8661 204.626 48.3419 204.326 47.7366C204.026 47.1309 203.876 46.4764 203.876 45.7715C203.876 44.8143 204.144 43.9333 204.68 43.1291C205.217 42.325 205.99 41.6785 207 41.1913C208.009 40.7033 209.205 40.4595 210.588 40.4595Z" fill="#A6BEC6"/>
<path d="M74.3267 40.7305H74.4514C74.9329 40.7305 75.3549 41.0504 75.4821 41.5115L79.3623 55.5867H79.4127L83.8388 40.7305H86.2298L90.6304 55.5867H90.6808L94.6345 41.5065C94.7633 41.0481 95.1837 40.7305 95.6635 40.7305C96.3763 40.7305 96.8892 41.4115 96.6885 42.0907L91.7999 58.6186H89.4857L85.0339 43.4594H84.9836L80.5062 58.6186H78.1664L73.3017 42.0891C73.101 41.4108 73.6139 40.7305 74.3267 40.7305Z" fill="#A6BEC6"/>
</svg>
