<svg width="16" height="17" viewBox="0 0 16 17" fill="none" xmlns="http://www.w3.org/2000/svg">
<path d="M12.9335 10.7022C12.3961 10.5866 11.971 10.8361 11.5946 11.054C11.2091 11.2785 10.4761 11.8731 10.056 11.7209C7.90487 10.8353 5.88171 8.95246 5.00591 6.79273C4.85155 6.36361 5.4434 5.62596 5.66626 5.23593C5.88253 4.85837 6.12686 4.42925 6.01543 3.88786C5.91472 3.40136 4.61217 1.74394 4.15158 1.2907C3.84781 0.991318 3.53662 0.826657 3.21718 0.800045C2.01616 0.748484 0.674813 2.35102 0.439562 2.7344C-0.149804 3.55189 -0.146502 4.63965 0.449467 5.95861C1.88574 9.50133 7.31798 14.8478 10.874 16.3381C11.5302 16.645 12.1303 16.7988 12.6693 16.7988C13.1968 16.7988 13.6665 16.6516 14.0701 16.3597C14.3747 16.1843 16.0429 14.7763 15.9992 13.543C15.9727 13.2287 15.8085 12.9143 15.513 12.6099C15.0631 12.1451 13.4163 10.8036 12.9335 10.7022Z" fill="#F0EFEF"/>
</svg>
