<svg width="50" height="51" viewBox="0 0 50 51" fill="none" xmlns="http://www.w3.org/2000/svg">
<g clip-path="url(#clip0_579_1313)">
<path d="M24.9996 40.009C32.8932 40.009 39.2922 33.61 39.2922 25.7164C39.2922 17.8228 32.8932 11.4238 24.9996 11.4238C17.106 11.4238 10.707 17.8228 10.707 25.7164C10.707 33.61 17.106 40.009 24.9996 40.009Z" stroke="#A6BEC6" stroke-width="1.5" stroke-miterlimit="10" stroke-linecap="round" stroke-linejoin="round"/>
<path d="M48.5352 29.5827V21.8509L44.7144 21.6782C44.1931 19.1201 43.1854 16.7394 41.7938 14.6347L44.3755 11.8086L38.9082 6.34131L36.0821 8.92295C33.9774 7.53125 31.5967 6.52373 29.0386 6.00244L28.8659 2.18164H21.1341L20.9614 6.00244C18.4033 6.52373 16.0226 7.53135 13.9179 8.92295L11.0918 6.34131L5.62451 11.8086L8.20615 14.6347C6.81445 16.7394 5.80693 19.1201 5.28564 21.6782L1.46484 21.8509V29.5827L5.28564 29.7554C5.80693 32.3135 6.81455 34.6942 8.20615 36.7989L5.62451 39.625L11.0917 45.0923L13.9178 42.5106C16.0225 43.9023 18.4032 44.9099 20.9613 45.4312L21.1341 49.252H28.8659L29.0386 45.4312C31.5967 44.9099 33.9774 43.9022 36.0821 42.5106L38.9082 45.0923L44.3755 39.625L41.7938 36.7989C43.1855 34.6942 44.1931 32.3135 44.7144 29.7554L48.5352 29.5827Z" stroke="#A6BEC6" stroke-width="1.5" stroke-miterlimit="10" stroke-linecap="round" stroke-linejoin="round"/>
<path d="M27.9287 39.6113V26.6934H32.9551L24.999 17.2725L17.043 26.6934H22.0693V39.6113" stroke="#A6BEC6" stroke-width="1.5" stroke-miterlimit="10" stroke-linecap="round" stroke-linejoin="round"/>
</g>
<defs>
<clipPath id="clip0_579_1313">
<rect width="50" height="50" fill="white" transform="translate(0 0.716797)"/>
</clipPath>
</defs>
</svg>
