<svg width="50" height="51" viewBox="0 0 50 51" fill="none" xmlns="http://www.w3.org/2000/svg">
<g clip-path="url(#clip0_579_1508)">
<path d="M15.198 28.0844V30.452H10.4629V28.0844C10.4629 26.7768 11.5229 25.7168 12.8305 25.7168C14.1381 25.7168 15.198 26.7768 15.198 28.0844Z" stroke="#A6BEC6" stroke-width="1.5" stroke-miterlimit="10" stroke-linecap="round" stroke-linejoin="round"/>
<path d="M34.8027 28.0844V30.452H39.5379V28.0844C39.5379 26.7768 38.4779 25.7168 37.1703 25.7168C35.8627 25.7168 34.8027 26.7768 34.8027 28.0844Z" stroke="#A6BEC6" stroke-width="1.5" stroke-miterlimit="10" stroke-linecap="round" stroke-linejoin="round"/>
<path d="M10.4629 30.4521V38.5276C10.4629 39.529 10.938 40.4709 11.7432 41.0661L18.2871 45.9035C18.5388 46.0895 18.6872 46.3839 18.6872 46.6968V49.9846" stroke="#A6BEC6" stroke-width="1.5" stroke-miterlimit="10" stroke-linecap="round" stroke-linejoin="round"/>
<path d="M34.8027 30.4521V37.6439L30.2698 39.2938H19.7302L15.1973 37.6439V30.4521" stroke="#A6BEC6" stroke-width="1.5" stroke-miterlimit="10" stroke-linecap="round" stroke-linejoin="round"/>
<path d="M39.5391 32.8447V30.4521" stroke="#A6BEC6" stroke-width="1.5" stroke-miterlimit="10" stroke-linecap="round" stroke-linejoin="round"/>
<path d="M39.5391 36.2725V38.5273C39.5391 39.5283 39.0635 40.4707 38.2588 41.0654L31.7148 45.9033C31.4629 46.0889 31.3145 46.3838 31.3145 46.6963V49.9844" stroke="#A6BEC6" stroke-width="1.5" stroke-miterlimit="10" stroke-linecap="round" stroke-linejoin="round"/>
<path d="M25.0008 39.2936C27.6159 39.2936 29.7359 37.1736 29.7359 34.5584C29.7359 31.9432 27.6159 29.8232 25.0008 29.8232C22.3856 29.8232 20.2656 31.9432 20.2656 34.5584C20.2656 37.1736 22.3856 39.2936 25.0008 39.2936Z" stroke="#A6BEC6" stroke-width="1.5" stroke-miterlimit="10" stroke-linecap="round" stroke-linejoin="round"/>
<path d="M45.9028 25.7173H4.09775C3.66191 25.7173 3.30859 25.364 3.30859 24.9281V23.3497C3.30859 22.9139 3.66191 22.5605 4.09775 22.5605H45.9028C46.3387 22.5605 46.692 22.9139 46.692 23.3497V24.9281C46.692 25.364 46.3387 25.7173 45.9028 25.7173Z" stroke="#A6BEC6" stroke-width="1.5" stroke-miterlimit="10" stroke-linecap="round" stroke-linejoin="round"/>
<path d="M12.7974 18.3344C23.8101 20.2788 35.1724 19.5717 45.9293 16.2114C46.3492 16.0796 46.5826 15.6313 46.4469 15.2124C46.2848 14.7124 46.1217 14.2124 45.9596 13.7114C45.8258 13.3012 45.3873 13.0737 44.9762 13.2016C31.9683 17.2622 18.0328 17.2622 5.02499 13.2016C4.61385 13.0737 4.17538 13.3012 4.04159 13.7114C3.87948 14.2124 3.71639 14.7124 3.55428 15.2124C3.41854 15.6313 3.65194 16.0796 4.07186 16.2114C5.8453 16.7651 7.63534 17.2475 9.43807 17.6567" stroke="#A6BEC6" stroke-width="1.5" stroke-miterlimit="10" stroke-linecap="round" stroke-linejoin="round"/>
<path d="M23.0276 6.2627V7.26562H22.0706C21.2522 7.26562 20.7893 8.20508 21.2883 8.85352L24.218 12.665C24.6135 13.1787 25.387 13.1787 25.7825 12.665L28.7122 8.85352C29.2112 8.20508 28.7483 7.26562 27.9299 7.26562H26.9729V2.43555C26.9729 1.89063 26.5315 1.44922 25.9866 1.44922H24.0139C23.469 1.44922 23.0276 1.89063 23.0276 2.43555V2.83496" stroke="#A6BEC6" stroke-width="1.5" stroke-miterlimit="10" stroke-linecap="round" stroke-linejoin="round"/>
<path d="M37.7626 10.6917L40.6924 6.88086C41.1912 6.23213 40.7287 5.29316 39.9103 5.29316H38.9536V2.43574C38.9536 1.89092 38.5119 1.44922 37.967 1.44922H35.9941C35.4493 1.44922 35.0076 1.89092 35.0076 2.43574V5.29316H34.0508C33.2325 5.29316 32.77 6.23213 33.2687 6.88086L36.1984 10.6917C36.5933 11.2053 37.3677 11.2053 37.7626 10.6917Z" stroke="#A6BEC6" stroke-width="1.5" stroke-miterlimit="10" stroke-linecap="round" stroke-linejoin="round"/>
<path d="M12.2394 10.6918L9.30972 6.88086C8.81099 6.23213 9.27349 5.29316 10.0918 5.29316H11.0486V2.43574C11.0486 1.89092 11.4903 1.44922 12.0351 1.44922H14.0081C14.5529 1.44922 14.9946 1.89092 14.9946 2.43574V5.29316H15.9513C16.7697 5.29316 17.2322 6.23213 16.7334 6.88086L13.8038 10.6917C13.4087 11.2054 12.6343 11.2054 12.2394 10.6918Z" stroke="#A6BEC6" stroke-width="1.5" stroke-miterlimit="10" stroke-linecap="round" stroke-linejoin="round"/>
</g>
<defs>
<clipPath id="clip0_579_1508">
<rect width="50" height="50" fill="white" transform="translate(0 0.716797)"/>
</clipPath>
</defs>
</svg>
