<svg width="51" height="50" viewBox="0 0 51 50" fill="none" xmlns="http://www.w3.org/2000/svg">
<g clip-path="url(#clip0_130_213)">
<path d="M25.2713 49.8815C19.3198 49.8815 13.6291 47.7752 9.07361 43.851C4.03886 39.5139 0.994236 33.4763 0.500528 26.8492C0.172584 22.445 1.01982 18.0311 2.95073 14.0849C3.11652 13.7473 3.52455 13.6082 3.86056 13.7729C4.19795 13.9381 4.33785 14.3453 4.17264 14.6827C2.34742 18.4121 1.54663 22.5843 1.85706 26.7482C2.81972 39.6804 14.1309 49.4199 27.0568 48.455C39.9887 47.492 49.7259 36.1878 48.7626 23.2555C48.2965 16.9911 45.4188 11.2831 40.6591 7.18295C35.8991 3.08393 29.8346 1.0812 23.5635 1.54907C17.3602 2.01082 11.6899 4.84487 7.59804 9.52944C7.35104 9.8123 6.92159 9.84099 6.63871 9.59424C6.35583 9.34723 6.32662 8.91749 6.57389 8.63521C10.9022 3.67939 16.9002 0.680987 23.4625 0.192836C30.0841 -0.302551 36.5119 1.81551 41.5466 6.153C46.5811 10.4899 49.6255 16.5276 50.1192 23.1546C50.6126 29.7812 48.4959 36.2036 44.1587 41.2381C39.8224 46.2729 33.7841 49.3175 27.1575 49.8112C26.5272 49.8582 25.8972 49.8815 25.2713 49.8815Z" fill="#A6BEC6"/>
<path d="M5.01945 12.486C4.89596 12.486 4.77107 12.4523 4.6587 12.3819C4.34048 12.1827 4.24425 11.763 4.44396 11.4448L4.54188 11.2866C4.56134 11.2551 4.58332 11.2248 4.6078 11.1965V11.1959C4.62002 11.18 4.64535 11.145 4.69708 11.071C4.9132 10.7645 5.33737 10.6899 5.64445 10.9055C5.95181 11.1211 6.02607 11.5452 5.80996 11.8529C5.77518 11.9029 5.73958 11.9486 5.70397 11.9906L5.7051 11.9914L5.59577 12.1672C5.46699 12.373 5.24558 12.486 5.01945 12.486Z" fill="#A6BEC6"/>
<path d="M31.3298 36.0399C31.3153 36.5119 31.5153 36.9461 31.8894 37.2454C32.2905 37.5658 32.7995 37.6543 33.2846 37.4896C39.4653 35.389 41.6947 33.6286 41.7203 32.6818C41.7336 32.182 41.0639 31.9703 40.6633 31.8888C38.5372 31.4546 34.2103 32.6387 31.3298 36.0399ZM17.2847 38.407C17.7784 38.407 18.2774 38.4495 18.7775 38.5366C22.32 39.1546 25.1243 39.9112 27.174 40.7988C27.6195 39.7287 28.0256 38.9593 28.1305 38.7647C28.6153 37.5455 29.262 36.4596 30.0155 35.5069C30.2575 33.3764 30.7084 31.1537 31.0597 29.7479C31.6291 27.469 32.4972 25.3009 33.6406 23.3029C36.5556 18.2072 37.1706 15.5145 36.774 14.6934C36.7158 14.5732 36.6235 14.4564 36.3417 14.4138C34.4033 14.109 32.6482 18.0962 31.4816 20.7275C30.4617 23.0273 29.9062 24.2898 28.9349 24.2328C28.1186 24.1805 27.6972 23.8311 27.4874 23.5468C27.0694 22.9811 27.2093 22.3274 27.2265 22.2548C27.9294 19.8252 29.452 13.1024 28.1689 10.8157C27.98 10.4786 27.7539 10.2842 27.4571 10.2032C27.2691 10.1523 27.1308 10.1749 26.9781 10.282C25.5891 11.2621 25.166 16.8487 24.9382 19.85C24.7224 22.7013 24.6523 23.2348 24.262 23.5588C24.1026 23.6904 23.9013 23.751 23.7029 23.7291C22.4858 23.5933 21.7651 21.9959 20.8458 17.3981C20.0631 13.484 18.2179 11.4346 17.7784 11.513C17.3628 11.8796 17.5417 14.2533 18.143 16.5016C20.245 23.9963 19.109 24.3752 18.6239 24.5368C17.4916 24.9125 16.9448 23.8025 16.1871 22.2646C15.695 21.2663 15.0214 19.8986 13.9908 18.4061C12.5158 16.2705 11.6438 16.0513 11.4591 16.1133L11.4282 16.1359C10.4909 16.821 11.3654 18.4211 13.1244 21.4268C13.9911 22.9082 14.9741 24.5871 15.9187 26.5664C17.4746 29.8272 17.8749 33.2776 17.108 36.822C16.9926 37.3558 16.9612 37.8907 17.0051 38.4114C17.098 38.4083 17.1915 38.407 17.2847 38.407ZM17.298 39.7668C17.8688 41.375 19.1847 42.6901 20.9334 43.1908C22.4952 43.6386 24.0192 44.0347 25.4633 44.368C25.6519 44.4119 25.8322 44.4508 26.0043 44.4859C26.1737 43.6473 26.4196 42.8217 26.6847 42.0693C24.7399 41.2241 21.9826 40.4764 18.5438 39.8761C18.1263 39.8035 17.7097 39.7676 17.298 39.7668ZM27.3453 44.697C28.9079 44.8558 29.3805 44.5337 29.5043 44.403C29.6086 44.2929 29.6122 44.1524 29.6019 44.0692C29.262 43.5874 28.6926 43.1216 27.9119 42.6763C27.6874 43.3307 27.4877 44.018 27.3453 44.697ZM27.108 49.813C26.8919 49.813 26.68 49.7104 26.5478 49.519C25.8533 48.5124 25.6884 47.1978 25.806 45.8329C25.5963 45.7912 25.3802 45.7448 25.1571 45.6936C23.6904 45.3542 22.1434 44.9523 20.5587 44.4987C18.2596 43.84 16.5584 42.0532 15.9117 39.8987C13.6429 40.3387 11.6677 41.8546 10.6934 44.0683C10.5423 44.4128 10.1407 44.5674 9.79689 44.4166C9.45338 44.2653 9.29707 43.8642 9.44838 43.5204C10.6074 40.888 12.9561 39.0856 15.6536 38.5633C15.5938 37.8991 15.6319 37.2164 15.7793 36.5345C16.4805 33.2912 16.1142 30.1345 14.6915 27.1522C13.7716 25.2247 12.804 23.5721 11.9506 22.1141C10.0456 18.8595 8.66679 16.5033 10.5963 15.06C10.8105 14.8761 11.1918 14.7056 11.6805 14.7554C12.7013 14.8477 13.8548 15.816 15.1098 17.6331C16.1971 19.2083 16.8966 20.6274 17.407 21.6632C17.6145 22.0852 17.8396 22.5411 18.0276 22.8598C17.9917 21.6707 17.4507 19.0692 16.8315 16.861C16.5089 15.6544 15.5632 11.6529 16.8685 10.5025C17.2613 10.1568 17.7678 10.0625 18.2915 10.2399C19.8258 10.7573 21.4975 13.7204 22.1792 17.1317C22.701 19.7418 23.1216 21.0577 23.4173 21.7205C23.4757 21.1542 23.531 20.426 23.5825 19.7473C23.9508 14.885 24.4278 10.4174 26.1943 9.17071C26.6766 8.83055 27.2371 8.73295 27.8148 8.89117C28.4682 9.06947 28.9861 9.49308 29.3549 10.1504C31.1267 13.309 28.8659 21.4744 28.5511 22.567C28.5461 22.6112 28.548 22.6971 28.5833 22.7416C28.617 22.7847 28.7121 22.8342 28.8821 22.8604C29.1997 22.5185 29.7724 21.2273 30.238 20.1763C31.6522 16.9878 33.59 12.6331 36.5465 13.069C37.2193 13.1719 37.7213 13.5285 37.9984 14.1018C38.7497 15.6566 37.6805 18.9799 34.8208 23.9785C33.7397 25.868 32.918 27.9196 32.379 30.0772C32.1403 31.0324 31.8549 32.375 31.6241 33.803C34.613 31.1375 38.4454 30.0469 40.9351 30.5565C42.3069 30.8363 43.1085 31.6446 43.0793 32.7185C43.0604 33.437 43.0014 35.6232 33.7221 38.7769C32.8026 39.0912 31.7998 38.9143 31.0408 38.3077C30.737 38.0651 30.4914 37.7691 30.3126 37.4395C29.9582 38.0126 29.6439 38.6328 29.3802 39.3023L29.3438 39.3799C29.0832 39.8561 28.7374 40.5651 28.3967 41.3928C29.5315 42.0151 30.3373 42.6935 30.8088 43.4264L30.88 43.5738C31.0032 43.9329 31.0664 44.7017 30.5215 45.3061C29.9193 45.9737 28.8084 46.2185 27.1459 46.0418C27.0641 47.0963 27.1912 48.0565 27.6671 48.7471C27.8805 49.0561 27.8026 49.4797 27.4935 49.6925C27.3756 49.7741 27.2413 49.813 27.108 49.813Z" fill="#A6BEC6"/>
</g>
<defs>
<clipPath id="clip0_130_213">
<rect width="50" height="49.8665" fill="white" transform="translate(0.333984 0.0332031)"/>
</clipPath>
</defs>
</svg>
