<svg width="50" height="51" viewBox="0 0 50 51" fill="none" xmlns="http://www.w3.org/2000/svg">
<g clip-path="url(#clip0_579_868)">
<path d="M35.6162 4.69629C37.0293 7.16113 36.6836 10.3604 34.5771 12.4668L29.957 17.0869" stroke="#A6BEC6" stroke-width="1.5" stroke-miterlimit="10" stroke-linecap="round" stroke-linejoin="round"/>
<path d="M19.7549 17.0867L15.1338 12.4666C13.874 11.2068 13.2441 9.5545 13.2441 7.90313C13.2441 6.25079 13.874 4.59942 15.1338 3.33965C17.6543 0.819147 21.7412 0.819147 24.2607 3.33965L24.8555 3.9334L25.4492 3.33965C27.5557 1.23321 30.7539 0.887506 33.2197 2.30059" stroke="#A6BEC6" stroke-width="1.5" stroke-miterlimit="10" stroke-linecap="round" stroke-linejoin="round"/>
<path d="M28.9404 41.6709C33.5049 42.835 37.3065 45.9053 39.4491 49.9843H10.2578C12.4024 45.9013 16.2089 42.8291 20.7792 41.668" stroke="#A6BEC6" stroke-width="1.5" stroke-miterlimit="10" stroke-linecap="round" stroke-linejoin="round"/>
<path d="M17.5889 38.2432C18.5391 38.9161 19.587 39.461 20.7071 39.8507V40.8829C20.7071 43.1573 22.5098 45.0607 24.7842 45.0987C27.1085 45.1368 29.004 43.2648 29.004 40.9513V39.8517C33.4278 38.3097 36.7276 34.3682 37.3458 29.587C39.6407 28.9805 41.3322 26.8916 41.3322 24.4073C41.3322 23.4473 40.9425 22.5781 40.3136 21.9483C39.6837 21.3194 38.8155 20.9297 37.8546 20.9297H37.4503V17.0869H12.2598V20.9297H11.8555C9.93458 20.9297 8.37891 22.4873 8.37891 24.4073C8.37891 25.6494 8.80176 26.793 9.51172 27.7012C10.2207 28.6094 11.2168 29.2833 12.3652 29.587C12.6729 31.9678 13.6465 34.1407 15.0928 35.9122" stroke="#A6BEC6" stroke-width="1.5" stroke-miterlimit="10" stroke-linecap="round" stroke-linejoin="round"/>
<path d="M21.6601 26.8848C20.2675 28.2773 18.0098 28.2773 16.6172 26.8848" stroke="#A6BEC6" stroke-width="1.5" stroke-miterlimit="10" stroke-linecap="round" stroke-linejoin="round"/>
<path d="M33.0956 26.8848C31.703 28.2773 29.4453 28.2773 28.0527 26.8848" stroke="#A6BEC6" stroke-width="1.5" stroke-miterlimit="10" stroke-linecap="round" stroke-linejoin="round"/>
<path d="M37.7542 25.7173C37.7542 25.7173 37.7128 24.5619 38.5815 23.6934" stroke="#A6BEC6" stroke-width="1.5" stroke-miterlimit="10" stroke-linecap="round" stroke-linejoin="round"/>
<path d="M11.9541 25.7173C11.9541 25.7173 11.9955 24.5619 11.127 23.6934" stroke="#A6BEC6" stroke-width="1.5" stroke-miterlimit="10" stroke-linecap="round" stroke-linejoin="round"/>
<path d="M24.0371 33.916H25.6726" stroke="#A6BEC6" stroke-width="1.5" stroke-miterlimit="10" stroke-linecap="round" stroke-linejoin="round"/>
<path d="M43.0059 10.6211H49.2678" stroke="#A6BEC6" stroke-width="1.5" stroke-miterlimit="10" stroke-linecap="round" stroke-linejoin="round"/>
<path d="M41.2988 14.7393L45.7267 19.1672" stroke="#A6BEC6" stroke-width="1.5" stroke-miterlimit="10" stroke-linecap="round" stroke-linejoin="round"/>
<path d="M45.7267 2.0752L41.2988 6.50303" stroke="#A6BEC6" stroke-width="1.5" stroke-miterlimit="10" stroke-linecap="round" stroke-linejoin="round"/>
<path d="M6.99434 10.6211H0.732422" stroke="#A6BEC6" stroke-width="1.5" stroke-miterlimit="10" stroke-linecap="round" stroke-linejoin="round"/>
<path d="M8.69932 14.7393L4.27148 19.1672" stroke="#A6BEC6" stroke-width="1.5" stroke-miterlimit="10" stroke-linecap="round" stroke-linejoin="round"/>
<path d="M4.27148 2.0752L8.69932 6.50303" stroke="#A6BEC6" stroke-width="1.5" stroke-miterlimit="10" stroke-linecap="round" stroke-linejoin="round"/>
</g>
<defs>
<clipPath id="clip0_579_868">
<rect width="50" height="50" fill="white" transform="translate(0 0.716797)"/>
</clipPath>
</defs>
</svg>
