<svg width="50" height="50" viewBox="0 0 50 50" fill="none" xmlns="http://www.w3.org/2000/svg">
<mask id="mask0_579_2258" style="mask-type:luminance" maskUnits="userSpaceOnUse" x="0" y="0" width="50" height="50">
<path d="M49.25 49.25V0.750004H0.75V49.25H49.25Z" fill="white" stroke="white" stroke-width="1.5"/>
</mask>
<g mask="url(#mask0_579_2258)">
<path d="M21.2833 18.4893H25.8877C26.3232 18.4893 26.6768 18.1357 26.6768 17.7002V15.332C26.6768 14.8965 26.3232 14.543 25.8877 14.543H9.70898C9.27344 14.543 8.91992 14.8965 8.91992 15.332V17.7002C8.91992 18.1357 9.27344 18.4893 9.70898 18.4893H17.8653" stroke="#A6BEC6" stroke-width="1.5" stroke-miterlimit="10" stroke-linecap="round" stroke-linejoin="round"/>
<path d="M25.8879 14.543L27.5937 12.9508C28.3934 12.2045 28.8474 11.1599 28.8474 10.0661V1.91592C28.8474 1.26211 28.3174 0.73213 27.6636 0.73213H25.296C24.6422 0.73213 24.1122 1.26211 24.1122 1.91592V5.07266C24.1122 6.16231 23.2289 7.0457 22.1393 7.0457C21.0496 7.0457 20.1663 6.16231 20.1663 5.07266V1.91592C20.1663 1.26211 19.6362 0.73213 18.9825 0.73213H16.6149C15.9611 0.73213 15.4312 1.26211 15.4312 1.91592V5.07266C15.4312 6.16231 14.5478 7.0457 13.4582 7.0457C12.3687 7.0457 11.4852 6.16231 11.4852 5.07266V1.91592C11.4852 1.26211 10.9552 0.73213 10.3014 0.73213H7.93379C7.28008 0.73213 6.75 1.26211 6.75 1.91592V10.0661C6.75 11.1599 7.204 12.2045 8.00361 12.9508L9.70947 14.543" stroke="#A6BEC6" stroke-width="1.5" stroke-miterlimit="10" stroke-linecap="round" stroke-linejoin="round"/>
<path d="M9.90625 37.0352L10.8928 18.4892" stroke="#A6BEC6" stroke-width="1.5" stroke-miterlimit="10" stroke-linecap="round" stroke-linejoin="round"/>
<path d="M25.0553 25.1143L24.7031 18.489" stroke="#A6BEC6" stroke-width="1.5" stroke-miterlimit="10" stroke-linecap="round" stroke-linejoin="round"/>
<path d="M10.792 40.9814H7.73633C7.30078 40.9814 6.94727 40.6279 6.94727 40.1924V37.8242C6.94727 37.3887 7.30078 37.0352 7.73633 37.0352H23.7803" stroke="#A6BEC6" stroke-width="1.5" stroke-miterlimit="10" stroke-linecap="round" stroke-linejoin="round"/>
<path d="M23.2852 40.9814H14.2109" stroke="#A6BEC6" stroke-width="1.5" stroke-miterlimit="10" stroke-linecap="round" stroke-linejoin="round"/>
<path d="M8.91992 44.1377V40.981" stroke="#A6BEC6" stroke-width="1.5" stroke-miterlimit="10" stroke-linecap="round" stroke-linejoin="round"/>
<path d="M30.6221 45.3965V48.4785C30.6221 48.9141 30.2686 49.2676 29.833 49.2676H24.9922" stroke="#A6BEC6" stroke-width="1.5" stroke-miterlimit="10" stroke-linecap="round" stroke-linejoin="round"/>
<path d="M21.5752 49.2676H5.76367C5.32715 49.2676 4.97461 48.9141 4.97461 48.4785V44.9268C4.97461 44.4912 5.32715 44.1377 5.76367 44.1377H25.9023H29.834" stroke="#A6BEC6" stroke-width="1.5" stroke-miterlimit="10" stroke-linecap="round" stroke-linejoin="round"/>
<path d="M32.8916 37.4719C31.2163 37.4719 29.8582 36.1138 29.8582 34.4385C29.8582 32.7631 31.2163 31.405 32.8916 31.405C34.5669 31.405 35.925 32.7631 35.925 34.4385C35.925 36.1138 34.5669 37.4719 32.8916 37.4719ZM45.0254 35.5503V33.3266C45.0254 32.7661 44.6172 32.2892 44.0635 32.2026L42.2865 31.925C41.8879 31.8627 41.5468 31.5959 41.4043 31.2184C41.3374 31.0414 41.2653 30.8671 41.188 30.6956C41.0222 30.3277 41.0744 29.8981 41.3122 29.5723L42.3723 28.1196C42.7026 27.667 42.654 27.041 42.2577 26.6447L40.6853 25.0724C40.289 24.6761 39.6631 24.6274 39.2104 24.9578L37.7577 26.0178C37.4318 26.2557 37.0022 26.3078 36.6345 26.142C36.463 26.0647 36.2886 25.9926 36.1116 25.9258C35.7342 25.7833 35.4673 25.4421 35.4051 25.0435L35.1274 23.2666C35.0409 22.7129 34.564 22.3047 34.0035 22.3047H31.7797C31.2192 22.3047 30.7423 22.7129 30.6558 23.2666L30.3781 25.0435C30.3159 25.4421 30.049 25.7833 29.6716 25.9258C29.4946 25.9926 29.3202 26.0647 29.1487 26.142C28.781 26.3078 28.3514 26.2557 28.0255 26.0178L26.5729 24.9578C26.1201 24.6274 25.4942 24.6761 25.0979 25.0724L23.5255 26.6447C23.1292 27.041 23.0806 27.667 23.4109 28.1196L24.471 29.5723C24.7088 29.8981 24.761 30.3277 24.5952 30.6956C24.5179 30.8671 24.4457 31.0414 24.3789 31.2184C24.2364 31.5959 23.8953 31.8627 23.4967 31.925L21.7197 32.2026C21.166 32.2892 20.7578 32.7661 20.7578 33.3266V35.5503C20.7578 36.1107 21.166 36.5877 21.7197 36.6742L23.4967 36.9519C23.8953 37.0142 24.2364 37.281 24.3789 37.6585C24.4457 37.8354 24.5179 38.0098 24.5952 38.1813C24.761 38.5491 24.7088 38.9787 24.471 39.3046L23.4109 40.7572C23.0806 41.2099 23.1292 41.8358 23.5255 42.2321L25.0979 43.8045C25.4942 44.2008 26.1201 44.2494 26.5729 43.919L28.0255 42.8591C28.3514 42.6212 28.781 42.569 29.1487 42.7349C29.3202 42.8121 29.4946 42.8843 29.6716 42.9511C30.049 43.0936 30.3159 43.4348 30.3781 43.8334L30.6558 45.6103C30.7423 46.164 31.2192 46.5723 31.7797 46.5723H34.0035C34.564 46.5723 35.0409 46.164 35.1274 45.6103L35.4051 43.8334C35.4673 43.4348 35.7342 43.0936 36.1116 42.9511C36.2886 42.8843 36.463 42.8121 36.6345 42.7349C37.0022 42.569 37.4318 42.6212 37.7577 42.8591L39.2104 43.919C39.6631 44.2494 40.289 44.2008 40.6853 43.8045L42.2577 42.2321C42.654 41.8358 42.7026 41.2099 42.3723 40.7572L41.3122 39.3046C41.0744 38.9787 41.0222 38.5491 41.188 38.1813C41.2653 38.0098 41.3374 37.8354 41.4043 37.6585C41.5468 37.281 41.8879 37.0142 42.2865 36.9519L44.0635 36.6742C44.6172 36.5877 45.0254 36.1107 45.0254 35.5503Z" stroke="#A6BEC6" stroke-width="1.5" stroke-miterlimit="10" stroke-linecap="round" stroke-linejoin="round"/>
<path d="M32.8922 40.4404C29.5776 40.4404 26.8906 37.7534 26.8906 34.4389C26.8906 31.1243 29.5776 28.4373 32.8922 28.4373C36.2067 28.4373 38.8937 31.1243 38.8937 34.4389C38.8937 37.7534 36.2067 40.4404 32.8922 40.4404Z" stroke="#A6BEC6" stroke-width="1.5" stroke-miterlimit="10" stroke-linecap="round" stroke-linejoin="round"/>
</g>
</svg>
