<svg width="364" height="218" viewBox="0 0 364 218" fill="none" xmlns="http://www.w3.org/2000/svg">
<g clip-path="url(#clip0_216_743)">
<path d="M123.769 115.945C114.69 125.673 107.735 136.713 104.136 144.6C95.8185 162.825 95.489 182.953 103.275 197.132C107.682 205.158 116.536 212.941 128.206 210.753C135.663 209.342 141.784 205.324 146.402 198.804C155.288 186.248 152.216 158.285 143.644 142.606C138.325 132.877 135.059 128.421 125.244 117.516C124.766 116.986 124.275 116.463 123.769 115.945ZM238.947 116.869C238.747 117.084 238.551 117.299 238.355 117.516C227.976 129.044 224.008 135.043 219.044 144.127C210.7 159.384 208.138 186.009 217.196 198.804C221.81 205.321 227.933 209.342 235.392 210.753C247.068 212.946 255.914 205.16 260.323 197.132C268.108 182.95 267.777 162.822 259.463 144.6C255.221 135.308 247.847 125.507 238.947 116.869ZM239.461 217.424C237.774 217.424 236.029 217.264 234.227 216.923C225.113 215.201 217.661 210.326 212.076 202.434C203.336 190.092 201.839 162.505 213.537 141.114C218.641 131.778 222.959 125.235 233.692 113.312C233.901 113.08 234.115 112.846 234.33 112.615C228.772 107.756 222.774 103.404 216.672 99.9166C182.253 80.2338 149.074 97.3391 148.743 97.5128L148.49 97.6325C141.163 100.715 134.295 105.706 128.19 111.487C128.781 112.088 129.351 112.695 129.907 113.312C140.009 124.538 143.607 129.449 149.152 139.591C157.496 154.855 163.143 186.018 151.521 202.434C145.934 210.326 138.481 215.201 129.371 216.923C114.42 219.768 103.245 210.116 97.7759 200.157C89.0512 184.273 89.3029 161.985 98.4278 141.992C102.793 132.422 110.065 121.317 119.091 111.691C112.111 106.016 103.109 101.278 92.2152 97.5588C63.5903 87.7815 33.1041 96.364 10.6739 120.506C7.71146 123.693 6.05157 125.856 6.03487 125.878C4.98394 127.257 3.01551 127.518 1.6364 126.47C0.260136 125.417 -0.00532547 123.448 1.04422 122.07C1.11794 121.974 2.88477 119.664 6.07658 116.229C30.2432 90.2198 63.2039 81.0169 94.2407 91.6148C106.085 95.6588 115.897 100.889 123.531 107.218C130.339 100.753 137.943 95.2816 145.932 91.8959C148.71 90.4506 183.054 73.4565 219.785 94.4623C226.456 98.2767 232.934 102.974 238.891 108.214C246.682 101.44 256.895 95.87 269.355 91.6148C300.393 81.0169 333.355 90.2198 357.519 116.229C360.711 119.662 362.478 121.972 362.552 122.069C363.603 123.446 363.338 125.414 361.961 126.467C360.586 127.523 358.618 127.257 357.565 125.881C357.547 125.858 355.887 123.696 352.923 120.506C330.493 96.3653 300.012 87.7828 271.382 97.5588C259.972 101.455 250.637 106.468 243.529 112.505C252.885 121.607 260.585 131.943 265.171 141.992C274.296 161.982 274.545 184.272 265.823 200.157C261.013 208.915 251.789 217.421 239.461 217.424Z" fill="#F0EFEF"/>
<path d="M84.156 6.54216C70.8355 6.54216 59.9992 17.3849 59.9992 30.7136C59.9992 44.0425 70.8355 54.8869 84.156 54.8869C97.4766 54.8869 108.314 44.0425 108.314 30.7136C108.314 17.3849 97.4766 6.54216 84.156 6.54216ZM84.156 61.1673C67.374 61.1673 53.7227 47.5045 53.7227 30.7136C53.7227 13.9213 67.374 0.261719 84.156 0.261719C100.938 0.261719 114.591 13.9213 114.591 30.7136C114.591 47.5045 100.938 61.1673 84.156 61.1673Z" fill="#F0EFEF"/>
<path d="M181.799 6.54216C168.478 6.54216 157.642 17.3849 157.642 30.7136C157.642 44.0425 168.478 54.8869 181.799 54.8869C195.119 54.8869 205.956 44.0425 205.956 30.7136C205.956 17.3849 195.119 6.54216 181.799 6.54216ZM181.799 61.1673C165.017 61.1673 151.365 47.5045 151.365 30.7136C151.365 13.9213 165.017 0.261719 181.799 0.261719C198.581 0.261719 212.232 13.9213 212.232 30.7136C212.232 47.5045 198.581 61.1673 181.799 61.1673Z" fill="#F0EFEF"/>
<path d="M279.439 6.54216C266.119 6.54216 255.282 17.3849 255.282 30.7136C255.282 44.0425 266.119 54.8869 279.439 54.8869C292.76 54.8869 303.598 44.0425 303.598 30.7136C303.598 17.3849 292.76 6.54216 279.439 6.54216ZM279.439 61.1673C262.657 61.1673 249.006 47.5045 249.006 30.7136C249.006 13.9213 262.657 0.261719 279.439 0.261719C296.221 0.261719 309.874 13.9213 309.874 30.7136C309.874 47.5045 296.221 61.1673 279.439 61.1673Z" fill="#F0EFEF"/>
</g>
<defs>
<clipPath id="clip0_216_743">
<rect width="364" height="218" fill="white"/>
</clipPath>
</defs>
</svg>
