<svg width="84" height="51" viewBox="0 0 84 51" fill="none" xmlns="http://www.w3.org/2000/svg">
<g clip-path="url(#clip0_130_127)">
<path d="M28.4043 27.5262C26.3207 29.7572 24.7245 32.2894 23.8985 34.0984C21.9897 38.2785 21.9141 42.895 23.701 46.147C24.7124 47.9878 26.7443 49.7728 29.4227 49.271C31.134 48.9475 32.5387 48.0258 33.5986 46.5304C35.6379 43.6508 34.9328 37.2371 32.9656 33.6409C31.745 31.4096 30.9952 30.3876 28.7428 27.8864C28.6331 27.7648 28.5204 27.6449 28.4043 27.5262ZM54.8374 27.738C54.7915 27.7874 54.7465 27.8366 54.7015 27.8864C52.3196 30.5306 51.409 31.9063 50.2697 33.9899C48.3549 37.4891 47.7669 43.5959 49.8457 46.5304C50.9046 48.0252 52.3097 48.9475 54.0216 49.271C56.7013 49.7741 58.7313 47.9882 59.7433 46.147C61.5299 42.8943 61.454 38.2778 59.5458 34.0984C58.5724 31.9672 56.8799 29.7193 54.8374 27.738ZM54.9555 50.8011C54.5682 50.8011 54.1678 50.7644 53.7543 50.6863C51.6627 50.2913 49.9523 49.173 48.6707 47.3631C46.6649 44.5323 46.3213 38.2051 49.006 33.2989C50.1772 31.1575 51.1682 29.6567 53.6315 26.9222C53.6793 26.8689 53.7285 26.8154 53.7779 26.7624C52.5024 25.648 51.1257 24.6497 49.7255 23.8499C41.8263 19.3355 34.2118 23.2587 34.1359 23.2986L34.0778 23.326C32.3961 24.033 30.8201 25.1777 29.4188 26.5036C29.5545 26.6414 29.6853 26.7806 29.8129 26.9222C32.1313 29.4969 32.957 30.6234 34.2297 32.9495C36.1446 36.4504 37.4405 43.5978 34.7733 47.3631C33.4911 49.173 31.7807 50.2913 29.69 50.6863C26.2588 51.3387 23.694 49.1249 22.4389 46.8409C20.4366 43.1978 20.4943 38.0858 22.5885 33.5002C23.5903 31.3052 25.2592 28.7583 27.3307 26.5505C25.7288 25.2488 23.6627 24.1622 21.1627 23.3091C14.5934 21.0666 7.59681 23.035 2.4491 28.5723C1.76923 29.3032 1.38829 29.7993 1.38446 29.8044C1.14327 30.1206 0.691514 30.1805 0.37501 29.94C0.0591603 29.6985 -0.00176267 29.2471 0.239107 28.9309C0.256024 28.9088 0.661511 28.379 1.39403 27.5912C6.94023 21.6258 14.5047 19.5151 21.6276 21.9458C24.3458 22.8733 26.5976 24.0728 28.3498 25.5245C29.9121 24.0416 31.6572 22.7868 33.4908 22.0103C34.1282 21.6788 42.0101 17.781 50.4398 22.5989C51.9709 23.4737 53.4576 24.5511 54.8247 25.753C56.6126 24.1992 58.9566 22.9218 61.8161 21.9458C68.9393 19.5151 76.5041 21.6258 82.0497 27.5912C82.7822 28.3786 83.1877 28.9086 83.2046 28.9306C83.4458 29.2465 83.3852 29.6979 83.069 29.9394C82.7535 30.1815 82.3017 30.1206 82.0602 29.8051C82.056 29.7996 81.6751 29.3039 80.9949 28.5723C75.8472 23.0353 68.8519 21.0669 62.2813 23.3091C59.6626 24.2027 57.5203 25.3525 55.889 26.7372C58.0361 28.8247 59.8033 31.1955 60.8558 33.5002C62.95 38.0851 63.0071 43.1974 61.0055 46.8409C59.9016 48.8496 57.7847 50.8005 54.9555 50.8011Z" fill="#A6BEC6"/>
<path d="M19.3125 2.43363C16.2555 2.43363 13.7686 4.9205 13.7686 7.97753C13.7686 11.0346 16.2555 13.5219 19.3125 13.5219C22.3696 13.5219 24.8568 11.0346 24.8568 7.97753C24.8568 4.9205 22.3696 2.43363 19.3125 2.43363ZM19.3125 14.9623C15.4611 14.9623 12.3281 11.8287 12.3281 7.97753C12.3281 4.12609 15.4611 0.993164 19.3125 0.993164C23.164 0.993164 26.2973 4.12609 26.2973 7.97753C26.2973 11.8287 23.164 14.9623 19.3125 14.9623Z" fill="#A6BEC6"/>
<path d="M41.7227 2.43363C38.6657 2.43363 36.1787 4.9205 36.1787 7.97753C36.1787 11.0346 38.6657 13.5219 41.7227 13.5219C44.7798 13.5219 47.2667 11.0346 47.2667 7.97753C47.2667 4.9205 44.7798 2.43363 41.7227 2.43363ZM41.7227 14.9623C37.8712 14.9623 34.7383 11.8287 34.7383 7.97753C34.7383 4.12609 37.8712 0.993164 41.7227 0.993164C45.5742 0.993164 48.7071 4.12609 48.7071 7.97753C48.7071 11.8287 45.5742 14.9623 41.7227 14.9623Z" fill="#A6BEC6"/>
<path d="M64.1309 2.43363C61.0739 2.43363 58.587 4.9205 58.587 7.97753C58.587 11.0346 61.0739 13.5219 64.1309 13.5219C67.188 13.5219 69.6752 11.0346 69.6752 7.97753C69.6752 4.9205 67.188 2.43363 64.1309 2.43363ZM64.1309 14.9623C60.2795 14.9623 57.1465 11.8287 57.1465 7.97753C57.1465 4.12609 60.2795 0.993164 64.1309 0.993164C67.9824 0.993164 71.1157 4.12609 71.1157 7.97753C71.1157 11.8287 67.9824 14.9623 64.1309 14.9623Z" fill="#A6BEC6"/>
</g>
<defs>
<clipPath id="clip0_130_127">
<rect width="83.5375" height="50" fill="white" transform="translate(0 0.933594)"/>
</clipPath>
</defs>
</svg>
