<svg width="50" height="50" viewBox="0 0 50 50" fill="none" xmlns="http://www.w3.org/2000/svg">
<g clip-path="url(#clip0_130_196)">
<path d="M24.9037 49.9156C12.0004 49.9159 1.05207 39.9257 0.0786414 26.8533C-0.249455 22.4419 0.598917 18.022 2.53212 14.072C2.69785 13.7339 3.10616 13.5949 3.44316 13.7595C3.78073 13.9249 3.92083 14.3327 3.75567 14.6705C1.92829 18.4039 1.12643 22.5817 1.43671 26.7522C2.40122 39.7017 13.7234 49.4603 26.6701 48.4879C32.9429 48.0206 38.6585 45.139 42.7641 40.3727C46.8692 35.6066 48.8729 29.5277 48.4056 23.2546C47.9385 16.9817 45.0566 11.2662 40.2906 7.16054C35.5251 3.05572 29.4456 1.05037 23.1722 1.51907C16.9606 1.98117 11.2838 4.81954 7.1862 9.51043C6.93832 9.79256 6.50912 9.82181 6.22503 9.57499C5.94233 9.32772 5.91309 8.8974 6.16041 8.61383C10.495 3.65229 16.5005 0.650083 23.0713 0.160757C29.7043 -0.335553 36.1376 1.78592 41.1793 6.12889C46.2209 10.4718 49.2695 16.5177 49.7639 23.1535C50.258 29.7892 48.1385 36.2203 43.7955 41.2614C39.4528 46.3029 33.407 49.3519 26.7712 49.8461C26.1448 49.8925 25.5218 49.9156 24.9037 49.9156Z" fill="#A6BEC6"/>
<path d="M4.60436 12.4701C4.48015 12.4701 4.35537 12.4364 4.24257 12.366C3.9245 12.1655 3.82813 11.7454 4.0281 11.4271L4.12614 11.2703C4.14564 11.2383 4.16764 11.2082 4.19243 11.1792L4.19215 11.1789C4.20497 11.1625 4.22975 11.1274 4.28156 11.0544C4.49797 10.7466 4.92355 10.6723 5.22992 10.8882C5.53796 11.104 5.61233 11.5287 5.39592 11.8362C5.35219 11.8992 5.31181 11.9568 5.27003 12.0092L5.18146 12.1515C5.05195 12.3576 4.83053 12.4701 4.60436 12.4701Z" fill="#A6BEC6"/>
<path d="M17.1201 46.0925C16.7305 46.0925 16.3391 46.0775 15.9459 46.0477C11.9196 45.7424 8.27987 43.8939 5.69743 40.8418C4.02492 38.8657 2.57716 36.4468 1.39401 33.6524C1.24723 33.3062 1.40905 32.9065 1.75525 32.7603C2.1034 32.6121 2.5014 32.7757 2.64763 33.1216C3.77758 35.7895 5.15292 38.0909 6.73687 39.9626C9.08229 42.7333 12.3892 44.4125 16.0492 44.6899C19.7429 44.9715 23.3091 43.7922 26.0846 41.3721C30.7531 37.3019 33.1147 31.0775 32.402 24.722C31.7667 19.063 27.9749 13.6875 24.499 10.8706C24.2068 10.6338 24.1619 10.2052 24.3987 9.91299C24.6349 9.61996 25.0644 9.57511 25.3562 9.81272C29.0483 12.8043 33.0771 18.5279 33.7547 24.5701C34.5176 31.3696 31.9847 38.0347 26.9789 42.3988C24.2218 44.8027 20.7581 46.0925 17.1201 46.0925Z" fill="#A6BEC6"/>
<path d="M24.9244 42.9265C24.7737 42.9265 24.6217 42.8764 24.4952 42.7739C20.0333 39.1489 16.7744 33.459 16.1928 28.2789C14.9431 17.1447 22.5617 7.11742 33.175 5.92642C34.4824 5.77967 35.8051 5.77073 37.1061 5.90194C37.4292 5.93562 44.9849 6.8503 48.6338 17.8084C48.7527 18.1652 48.5597 18.5504 48.2029 18.6691C47.8447 18.7877 47.4609 18.5952 47.3423 18.2384C43.9847 8.15737 37.2498 7.28812 36.9646 7.25614C35.7647 7.13661 34.539 7.1436 33.3266 7.27925C23.46 8.38715 16.3803 17.7394 17.5456 28.1273C18.0895 32.9711 21.1549 38.3053 25.3545 41.7172C25.6461 41.9545 25.6904 42.3831 25.4533 42.6753C25.3188 42.8404 25.1225 42.9265 24.9244 42.9265Z" fill="#A6BEC6"/>
<path d="M24.9278 22.8441C23.125 22.8441 21.6586 24.3105 21.6586 26.1134C21.6586 27.916 23.125 29.3824 24.9278 29.3824C26.7307 29.3824 28.1971 27.916 28.1971 26.1134C28.1971 24.3105 26.7307 22.8441 24.9278 22.8441ZM24.9278 30.7441C22.3746 30.7441 20.2969 28.6666 20.2969 26.1134C20.2969 23.5599 22.3746 21.4824 24.9278 21.4824C27.481 21.4824 29.5588 23.5599 29.5588 26.1134C29.5588 28.6666 27.481 30.7441 24.9278 30.7441Z" fill="#A6BEC6"/>
</g>
<defs>
<clipPath id="clip0_130_196">
<rect width="50" height="49.9332" fill="white"/>
</clipPath>
</defs>
</svg>
